<?xml version="1.0" encoding="UTF-8" standalone="no"?>
<svg
   version="1.1"
   width="1080"
   height="1080"
   id="svg961"
   viewBox="0 0 1080 1080"
   sodipodi:docname="viplus.svg"
   inkscape:version="1.1 (c4e8f9e, 2021-05-24)"
   xmlns:inkscape="http://www.inkscape.org/namespaces/inkscape"
   xmlns:sodipodi="http://sodipodi.sourceforge.net/DTD/sodipodi-0.dtd"
   xmlns="http://www.w3.org/2000/svg"
   xmlns:svg="http://www.w3.org/2000/svg">
  <defs
     id="defs965" />
  <sodipodi:namedview
     id="namedview963"
     pagecolor="#505050"
     bordercolor="#eeeeee"
     borderopacity="1"
     inkscape:pageshadow="0"
     inkscape:pageopacity="0"
     inkscape:pagecheckerboard="0"
     showgrid="false"
     height="1080px"
     borderlayer="true"
     inkscape:zoom="0.37175926"
     inkscape:cx="348.34371"
     inkscape:cy="511.08344"
     inkscape:window-width="1440"
     inkscape:window-height="847"
     inkscape:window-x="0"
     inkscape:window-y="92"
     inkscape:window-maximized="1"
     inkscape:current-layer="svg961" />
  <g
     id="Layer1001"
     transform="translate(1124.3836,21.519303)">
    <path
       d="M 144.3441,94.8178 V 517.1822 H 549.6976 V 94.8178 Z"
       style="fill:#e30016;fill-rule:evenodd"
       id="path872" />
    <path
       d="m 158.5174,108.991 v 394.018 h 377.007 V 108.991 Z"
       style="fill:#ffffff;fill-rule:evenodd"
       id="path874" />
    <path
       d="m 258.6092,445.4561 c 0.714,0.6054 1.2898,1.4069 1.7312,2.4075 0.4383,1.0007 0.6574,2.23 0.6574,3.6803 0,1.2762 -0.1968,2.3858 -0.5901,3.332 -0.3906,0.9427 -0.9104,1.7187 -1.5594,2.3204 -0.6576,0.6021 -1.405,1.0481 -2.2426,1.3417 -0.8373,0.2936 -1.7138,0.4423 -2.6301,0.4423 h -5.8867 v -0.8304 c 0.177,-0.003 0.3961,-0.0253 0.6602,-0.0616 0.2612,-0.0363 0.4383,-0.0797 0.5257,-0.1268 0.1964,-0.1089 0.334,-0.2502 0.413,-0.4315 0.0757,-0.1813 0.1149,-0.3989 0.1149,-0.6526 v -10.6851 c 0,-0.2431 -0.0363,-0.4607 -0.1094,-0.6565 -0.0703,-0.1921 -0.2107,-0.3515 -0.4185,-0.4713 -0.2081,-0.1197 -0.4302,-0.2031 -0.6632,-0.2428 -0.2334,-0.0437 -0.4133,-0.0726 -0.5396,-0.0871 v -0.8267 h 6.2156 c 0.6661,0 1.374,0.1089 2.1329,0.3299 0.7584,0.2176 1.4863,0.6236 2.1887,1.2183 z m -1.6773,10.8048 c 0.2668,-0.5657 0.4635,-1.2401 0.5872,-2.0231 0.1236,-0.7831 0.1854,-1.6824 0.1854,-2.7049 0,-0.997 -0.0815,-1.9071 -0.2472,-2.7302 -0.1632,-0.8193 -0.4046,-1.5229 -0.725,-2.1028 -0.3176,-0.5802 -0.7137,-1.0299 -1.1888,-1.3488 -0.4746,-0.3192 -1.0141,-0.4786 -1.6184,-0.4786 -0.1912,0 -0.4104,0.007 -0.6547,0.0181 -0.2444,0.0108 -0.4243,0.0179 -0.5451,0.0253 v 11.4392 c 0,0.2576 0.0253,0.4823 0.0758,0.6744 0.0534,0.1961 0.1433,0.3663 0.2699,0.5149 0.1262,0.1524 0.2809,0.2647 0.4635,0.3482 0.1854,0.0797 0.4243,0.1197 0.7192,0.1197 0.6214,0 1.1551,-0.1487 1.5992,-0.446 0.4437,-0.2973 0.8033,-0.7326 1.079,-1.3054 z m 13.9767,0.1813 c -0.1912,0.4026 -0.4243,0.7834 -0.6939,1.1422 -0.2728,0.3553 -0.5819,0.6634 -0.9276,0.9173 -0.368,0.2684 -0.7389,0.4749 -1.1154,0.6128 -0.3767,0.1376 -0.8065,0.2065 -1.2956,0.2065 -0.812,0 -1.5144,-0.1486 -2.1044,-0.446 -0.5904,-0.2973 -1.0765,-0.6996 -1.4613,-1.2001 -0.382,-0.5038 -0.6716,-1.0985 -0.86,-1.7802 -0.1881,-0.6852 -0.2838,-1.4248 -0.2838,-2.226 0,-0.7218 0.1041,-1.4143 0.3093,-2.0777 0.2049,-0.6599 0.4972,-1.2508 0.8765,-1.7658 0.3739,-0.5038 0.8432,-0.9101 1.4109,-1.2219 0.5674,-0.3118 1.2053,-0.4676 1.9076,-0.4676 0.7674,0 1.3995,0.1195 1.8912,0.3589 0.4946,0.2429 0.9049,0.5765 1.228,1.0007 0.312,0.4026 0.5398,0.8775 0.6829,1.4285 0.1434,0.5475 0.2136,1.124 0.2136,1.7258 v 0.6891 h -5.5637 c 0,1.4537 0.2165,2.556 0.6492,3.3138 0.4353,0.7577 1.1238,1.1385 2.0679,1.1385 0.5143,0 0.9778,-0.1813 1.3911,-0.5476 0.4104,-0.366 0.7613,-0.8264 1.0535,-1.3848 z m -3.1443,-4.0355 c 0,-0.4278 -0.0169,-0.8628 -0.0479,-1.3087 -0.0337,-0.446 -0.0926,-0.8086 -0.1742,-1.0952 -0.0928,-0.3299 -0.222,-0.5836 -0.3822,-0.7541 -0.1628,-0.1668 -0.368,-0.2539 -0.6124,-0.2539 -0.4246,0 -0.7616,0.2758 -1.0146,0.8304 -0.2528,0.551 -0.3878,1.4248 -0.4101,2.6215 z m 7.7471,6.9362 c -0.5311,0 -1.0509,-0.1016 -1.5597,-0.3047 -0.5056,-0.2029 -0.9017,-0.4168 -1.1801,-0.6418 l -0.2473,0.7218 h -0.6434 l -0.1068,-3.9632 h 0.6014 c 0.0812,0.3192 0.2194,0.6781 0.413,1.0807 0.1909,0.3986 0.4103,0.7578 0.6576,1.0767 0.2586,0.3191 0.5535,0.5875 0.8849,0.8085 0.3318,0.2177 0.6888,0.33 1.0652,0.33 0.5001,0 0.871,-0.1268 1.1156,-0.3771 0.2444,-0.2539 0.368,-0.6417 0.368,-1.1637 0,-0.2829 -0.0563,-0.5187 -0.1657,-0.7036 -0.1097,-0.1813 -0.2615,-0.3408 -0.4524,-0.475 -0.2137,-0.145 -0.4496,-0.2647 -0.7053,-0.3626 -0.2531,-0.0978 -0.5677,-0.221 -0.9415,-0.3625 -0.3735,-0.1413 -0.694,-0.2829 -0.9581,-0.4279 -0.267,-0.145 -0.5424,-0.3733 -0.8289,-0.6851 -0.2473,-0.2755 -0.444,-0.6092 -0.5929,-1.0007 -0.1463,-0.3881 -0.222,-0.8523 -0.222,-1.3924 0,-0.997 0.3259,-1.8056 0.9751,-2.4184 0.6519,-0.6165 1.5031,-0.9246 2.557,-0.9246 0.5,0 0.958,0.0652 1.3797,0.1957 0.4185,0.1306 0.7729,0.2758 1.0565,0.4279 l 0.1744,-0.6236 h 0.6237 l 0.1321,3.6221 h -0.5846 c -0.1912,-0.7359 -0.5198,-1.374 -0.9862,-1.9071 -0.4667,-0.5365 -0.9693,-0.8012 -1.506,-0.8012 -0.4246,0 -0.756,0.1124 -0.9978,0.3371 -0.2415,0.2284 -0.3625,0.5438 -0.3625,0.9464 0,0.5402 0.1771,0.928 0.5311,1.1675 0.3541,0.2429 0.8487,0.4676 1.4866,0.6815 0.9833,0.3265 1.6999,0.7688 2.1579,1.3343 0.4553,0.562 0.6832,1.2801 0.6832,2.1502 0,1.1601 -0.3544,2.0595 -1.0597,2.6975 -0.7052,0.6381 -1.6241,0.9573 -2.7621,0.9573 z m 10.0345,-0.3626 h -5.2013 v -0.7759 c 0.1431,-0.0145 0.2836,-0.0327 0.4188,-0.0545 0.1376,-0.0179 0.2557,-0.0542 0.3538,-0.105 0.1771,-0.0834 0.3007,-0.2068 0.3709,-0.3663 0.0732,-0.1594 0.1071,-0.3699 0.1071,-0.6309 v -6.1818 c 0,-0.2503 -0.0423,-0.4679 -0.1323,-0.6528 -0.0871,-0.1884 -0.1968,-0.3408 -0.3285,-0.4531 -0.0987,-0.0834 -0.2476,-0.1669 -0.447,-0.2429 -0.2023,-0.08 -0.3848,-0.1305 -0.548,-0.1487 v -0.7759 l 4.0325,-0.2755 0.1237,0.1595 v 8.4336 c 0,0.2465 0.042,0.4567 0.1233,0.6307 0.0816,0.1742 0.1997,0.3047 0.3544,0.3881 0.1094,0.0652 0.2304,0.1197 0.3622,0.1705 0.1323,0.0505 0.2699,0.0831 0.4104,0.105 z m -1.1998,-14.4886 c 0,0.5365 -0.1602,0.997 -0.4833,1.374 -0.3204,0.3808 -0.6997,0.5695 -1.1383,0.5695 -0.4466,0 -0.8289,-0.1887 -1.1493,-0.5695 -0.3201,-0.377 -0.4803,-0.8375 -0.4803,-1.374 0,-0.5402 0.1602,-0.9972 0.4803,-1.3814 0.3204,-0.3807 0.7027,-0.5731 1.1493,-0.5731 0.4441,0 0.8263,0.1924 1.1438,0.5731 0.3176,0.3842 0.4778,0.8412 0.4778,1.3814 z m 11.1779,5.1415 h -1.8096 c 0.2137,0.3117 0.3739,0.6417 0.4804,0.9861 0.1071,0.3481 0.1605,0.7107 0.1605,1.0841 0,0.4894 -0.1013,0.9462 -0.3036,1.3777 -0.2052,0.4278 -0.4693,0.7759 -0.7981,1.0443 -0.337,0.2755 -0.7276,0.4931 -1.1775,0.6489 -0.4522,0.156 -0.9383,0.2321 -1.4668,0.2321 h -1.3403 c -0.0674,0.0652 -0.1405,0.1668 -0.2192,0.3047 -0.0786,0.1376 -0.1178,0.2684 -0.1178,0.3989 0,0.3118 0.0955,0.5257 0.2865,0.6451 0.1909,0.1234 0.5395,0.1887 1.0451,0.2032 0.5004,0.0144 1.0062,0.04 1.515,0.0797 0.5114,0.04 0.8765,0.0615 1.0956,0.0689 0.3175,0.0219 0.6322,0.1053 0.9471,0.2503 0.312,0.1449 0.5845,0.3336 0.8149,0.5691 0.2528,0.2465 0.4609,0.562 0.6237,0.9501 0.1658,0.3842 0.2473,0.8302 0.2473,1.3343 0,0.5365 -0.0984,1.0441 -0.3007,1.5156 -0.1994,0.4749 -0.5056,0.8883 -0.9159,1.2327 -0.4357,0.3626 -0.9555,0.6418 -1.5597,0.8412 -0.6069,0.1958 -1.3572,0.2974 -2.2534,0.2974 -1.4416,0 -2.5404,-0.2287 -3.2933,-0.6818 -0.7505,-0.4534 -1.1269,-1.1311 -1.1269,-2.0376 0,-0.562 0.2023,-1.0188 0.6097,-1.3814 0.4046,-0.3626 1.037,-0.5586 1.8941,-0.5946 v -0.1272 c -0.5059,-0.221 -0.8994,-0.5112 -1.1833,-0.8772 -0.2809,-0.3663 -0.424,-0.787 -0.424,-1.269 0,-0.2974 0.056,-0.5476 0.1686,-0.7541 0.1123,-0.2069 0.2583,-0.3882 0.4328,-0.5439 0.1544,-0.1342 0.3398,-0.2466 0.5589,-0.3447 0.2221,-0.0942 0.4046,-0.1702 0.5535,-0.2284 v -0.116 c -0.7415,-0.3552 -1.2869,-0.7868 -1.6352,-1.2943 -0.3485,-0.5113 -0.523,-1.1349 -0.523,-1.8708 0,-1.0407 0.371,-1.8748 1.1157,-2.4947 0.7447,-0.6236 1.6862,-0.9354 2.8271,-0.9354 0.3736,0 0.7361,0.0397 1.0846,0.1197 0.3483,0.0834 0.6127,0.1558 0.7924,0.2174 h 3.1948 z m -3.8606,2.0268 c 0,-0.8268 -0.1013,-1.483 -0.3039,-1.9653 -0.2049,-0.4786 -0.5169,-0.7215 -0.9383,-0.7215 -0.2136,0 -0.4017,0.0653 -0.5593,0.1958 -0.1602,0.1342 -0.2893,0.3226 -0.3877,0.5691 -0.0929,0.2429 -0.1573,0.5223 -0.191,0.8449 -0.0308,0.3226 -0.0479,0.6526 -0.0479,0.9936 0,0.7722 0.1042,1.4066 0.312,1.8997 0.2078,0.4968 0.5059,0.7433 0.8907,0.7433 0.3936,0 0.6969,-0.221 0.9079,-0.667 0.2133,-0.446 0.3175,-1.0769 0.3175,-1.8926 z m 1.3821,8.923 c 0,-0.2395 -0.0505,-0.4786 -0.1544,-0.7144 -0.1039,-0.2392 -0.337,-0.4315 -0.6998,-0.5802 -0.1994,-0.0434 -0.5227,-0.0723 -0.9778,-0.0834 -0.4524,-0.0145 -1.0733,-0.0216 -1.863,-0.0216 -0.1909,0.2103 -0.3538,0.4639 -0.4803,0.7541 -0.1295,0.29 -0.1939,0.6381 -0.1939,1.0515 0,0.1776 0.0363,0.3699 0.1152,0.5839 0.0758,0.2102 0.1965,0.4096 0.3622,0.5943 0.1913,0.2069 0.4049,0.3663 0.6409,0.4823 0.2359,0.1161 0.5929,0.1776 1.0704,0.1776 0.7084,0 1.2477,-0.1776 1.6215,-0.5328 0.3738,-0.3555 0.559,-0.9246 0.559,-1.7113 z m 13.8478,-1.6027 h -4.9569 v -0.7759 c 0.1068,-0.0145 0.2305,-0.0327 0.3794,-0.0545 0.1488,-0.0179 0.2612,-0.0542 0.3372,-0.105 0.1149,-0.0763 0.1994,-0.1923 0.2473,-0.341 0.0505,-0.1484 0.0757,-0.366 0.0757,-0.6562 v -4.9709 c 0,-0.7252 -0.1039,-1.2654 -0.3091,-1.6317 -0.2078,-0.366 -0.5084,-0.5472 -0.9101,-0.5472 -0.2194,0 -0.4246,0.0434 -0.6127,0.1268 -0.191,0.0871 -0.3767,0.2102 -0.5567,0.3733 -0.1599,0.1416 -0.2864,0.2866 -0.3819,0.4352 -0.0955,0.1487 -0.1771,0.2792 -0.2447,0.3916 v 5.7068 c 0,0.2466 0.0282,0.4534 0.0845,0.6202 0.0534,0.1668 0.1433,0.2937 0.2699,0.3771 0.09,0.0652 0.1994,0.1197 0.3285,0.1705 0.1321,0.0505 0.2612,0.0831 0.3878,0.105 v 0.7759 h -5.0045 v -0.7759 c 0.1379,-0.0145 0.2754,-0.0327 0.4159,-0.0579 0.1405,-0.0256 0.2586,-0.0582 0.357,-0.1016 0.1768,-0.0763 0.2978,-0.1994 0.3625,-0.3589 0.0673,-0.1631 0.0981,-0.3773 0.0981,-0.6383 v -6.1818 c 0,-0.2213 -0.0421,-0.4352 -0.1292,-0.6492 -0.0899,-0.2139 -0.2051,-0.3844 -0.3485,-0.522 -0.0981,-0.0834 -0.2218,-0.156 -0.3735,-0.2102 -0.1518,-0.0582 -0.3176,-0.0979 -0.4975,-0.1161 v -0.7759 l 3.9257,-0.2755 0.1233,0.1595 v 1.5371 h 0.034 c 0.1547,-0.1739 0.3398,-0.3878 0.5592,-0.6344 0.2192,-0.2502 0.4244,-0.4497 0.6095,-0.6054 0.2023,-0.1705 0.4693,-0.3155 0.7982,-0.4389 0.3288,-0.1195 0.68,-0.1776 1.0538,-0.1776 0.8962,0 1.5649,0.3263 2.0148,0.9828 0.4467,0.6525 0.6687,1.5226 0.6687,2.6067 v 5.203 c 0,0.2647 0.0308,0.4715 0.0926,0.6273 0.0592,0.156 0.1715,0.2791 0.3372,0.3736 0.0871,0.0471 0.1939,0.0979 0.3233,0.1487 0.1292,0.0505 0.2781,0.0831 0.4412,0.105 z m 9.6157,-2.5381 c -0.191,0.4026 -0.4241,0.7834 -0.694,1.1422 -0.2725,0.3553 -0.5816,0.6634 -0.9273,0.9173 -0.368,0.2684 -0.7392,0.4749 -1.1156,0.6128 -0.3765,0.1376 -0.8063,0.2065 -1.2953,0.2065 -0.8121,0 -1.5145,-0.1486 -2.1048,-0.446 -0.59,-0.2973 -1.0762,-0.6996 -1.461,-1.2001 -0.3823,-0.5038 -0.6716,-1.0985 -0.86,-1.7802 -0.188,-0.6852 -0.2838,-1.4248 -0.2838,-2.226 0,-0.7218 0.1039,-1.4143 0.3091,-2.0777 0.2052,-0.6599 0.4974,-1.2508 0.8768,-1.7658 0.3738,-0.5038 0.8428,-0.9101 1.4105,-1.2219 0.5677,-0.3118 1.2053,-0.4676 1.908,-0.4676 0.7671,0 1.3995,0.1195 1.8911,0.3589 0.4946,0.2429 0.9047,0.5765 1.228,1.0007 0.3117,0.4026 0.5395,0.8775 0.6826,1.4285 0.1434,0.5475 0.2139,1.124 0.2139,1.7258 v 0.6891 h -5.5637 c 0,1.4537 0.2162,2.556 0.6489,3.3138 0.4357,0.7577 1.1241,1.1385 2.0682,1.1385 0.514,0 0.9778,-0.1813 1.3911,-0.5476 0.4101,-0.366 0.7613,-0.8264 1.0535,-1.3848 z m -3.1441,-4.0355 c 0,-0.4278 -0.0171,-0.8628 -0.0479,-1.3087 -0.0337,-0.446 -0.0926,-0.8086 -0.1741,-1.0952 -0.0929,-0.3299 -0.2224,-0.5836 -0.3823,-0.7541 -0.1631,-0.1668 -0.368,-0.2539 -0.6127,-0.2539 -0.4243,0 -0.7612,0.2758 -1.0143,0.8304 -0.2531,0.551 -0.3878,1.4248 -0.4101,2.6215 z m 12.136,-2.0194 c 0,0.5365 -0.1291,1.0114 -0.3874,1.4177 -0.2586,0.406 -0.5988,0.6091 -1.0202,0.6091 -0.4017,0 -0.7392,-0.1305 -1.0173,-0.3915 -0.278,-0.2613 -0.4159,-0.6492 -0.4159,-1.1567 0,-0.2503 0.0142,-0.4423 0.0421,-0.5802 0.0282,-0.1379 0.0505,-0.2684 0.0732,-0.3878 -0.2528,0.0144 -0.517,0.1268 -0.7982,0.3407 -0.2809,0.2102 -0.5279,0.4968 -0.7418,0.8483 v 5.8339 c 0,0.2466 0.031,0.4534 0.0929,0.6165 0.0589,0.1595 0.1602,0.29 0.3032,0.3808 0.1211,0.0797 0.3176,0.145 0.5875,0.1958 0.2725,0.0541 0.4693,0.0834 0.59,0.0905 v 0.7759 h -5.5074 v -0.7759 c 0.1378,-0.0145 0.2754,-0.0327 0.4159,-0.0579 0.1405,-0.0256 0.2586,-0.0582 0.3567,-0.1016 0.177,-0.0763 0.298,-0.1994 0.3628,-0.3589 0.0673,-0.1631 0.0981,-0.3773 0.0981,-0.6383 v -6.1818 c 0,-0.2576 -0.045,-0.486 -0.1376,-0.6855 -0.0955,-0.2028 -0.2081,-0.3626 -0.3402,-0.4857 -0.0983,-0.0834 -0.2217,-0.156 -0.3735,-0.2102 -0.1518,-0.0582 -0.3175,-0.0979 -0.4974,-0.1161 v -0.7759 l 3.9256,-0.2755 0.1234,0.1595 v 1.5371 h 0.0339 c 0.3794,-0.5654 0.7811,-1.0077 1.2054,-1.3306 0.4272,-0.3226 0.8683,-0.4857 1.3292,-0.4857 0.5114,0 0.9215,0.2065 1.2309,0.6128 0.3117,0.406 0.4661,0.9317 0.4661,1.5772 z m 3.7208,-5.95 c 0,0.3915 -0.1324,1.1459 -0.3991,2.2697 -0.267,1.1203 -0.4919,2.2989 -0.6803,3.5316 h -0.5674 c -0.191,-1.2327 -0.4188,-2.4113 -0.6829,-3.5316 -0.2641,-1.1238 -0.3962,-1.8782 -0.3962,-2.2697 0,-0.4531 0.1182,-0.8483 0.3541,-1.1894 0.236,-0.3407 0.5732,-0.5112 1.0144,-0.5112 0.4269,0 0.7615,0.1705 1.0004,0.5112 0.2389,0.3411 0.357,0.7363 0.357,1.1894 z m 5.1928,14.9056 c -0.5311,0 -1.0512,-0.1016 -1.5597,-0.3047 -0.5056,-0.2029 -0.902,-0.4168 -1.1801,-0.6418 l -0.2473,0.7218 h -0.6437 l -0.1065,-3.9632 h 0.6014 c 0.0812,0.3192 0.2191,0.6781 0.413,1.0807 0.1909,0.3986 0.4101,0.7578 0.6576,1.0767 0.2583,0.3191 0.5532,0.5875 0.8849,0.8085 0.3318,0.2177 0.6888,0.33 1.0652,0.33 0.5001,0 0.871,-0.1268 1.1156,-0.3771 0.2441,-0.2539 0.3681,-0.6417 0.3681,-1.1637 0,-0.2829 -0.0564,-0.5187 -0.1658,-0.7036 -0.1097,-0.1813 -0.2615,-0.3408 -0.4527,-0.475 -0.2133,-0.145 -0.4496,-0.2647 -0.705,-0.3626 -0.2531,-0.0978 -0.5677,-0.221 -0.9415,-0.3625 -0.3735,-0.1413 -0.694,-0.2829 -0.9584,-0.4279 -0.2667,-0.145 -0.5421,-0.3733 -0.8289,-0.6851 -0.2469,-0.2755 -0.4437,-0.6092 -0.5926,-1.0007 -0.1463,-0.3881 -0.222,-0.8523 -0.222,-1.3924 0,-0.997 0.3259,-1.8056 0.9748,-2.4184 0.6522,-0.6165 1.5034,-0.9246 2.557,-0.9246 0.5003,0 0.9583,0.0652 1.3798,0.1957 0.4188,0.1306 0.7728,0.2758 1.0567,0.4279 l 0.1741,-0.6236 h 0.624 l 0.1321,3.6221 h -0.5848 c -0.191,-0.7359 -0.5196,-1.374 -0.986,-1.9071 -0.4666,-0.5365 -0.9696,-0.8012 -1.5063,-0.8012 -0.4243,0 -0.7557,0.1124 -0.9975,0.3371 -0.2417,0.2284 -0.3625,0.5438 -0.3625,0.9464 0,0.5402 0.1771,0.928 0.5311,1.1675 0.3541,0.2429 0.8487,0.4676 1.4863,0.6815 0.9836,0.3265 1.7002,0.7688 2.1582,1.3343 0.4551,0.562 0.6829,1.2801 0.6829,2.1502 0,1.1601 -0.3541,2.0595 -1.0594,2.6975 -0.7052,0.6381 -1.6241,0.9573 -2.7621,0.9573 z m 19.5602,-11.5916 h -0.6266 c -0.1599,-0.5728 -0.4328,-1.153 -0.8231,-1.7403 -0.3907,-0.5876 -0.7758,-0.9357 -1.1607,-1.0406 -0.1657,-0.0508 -0.3935,-0.0798 -0.6887,-0.0908 -0.292,-0.0108 -0.5363,-0.0182 -0.7276,-0.0182 h -1.6944 v 5.8232 h 1.1998 c 0.3036,0 0.5762,-0.0471 0.8234,-0.1379 0.2473,-0.0942 0.4722,-0.2684 0.6774,-0.5331 0.1234,-0.1631 0.2528,-0.4494 0.382,-0.8591 0.1294,-0.4097 0.2107,-0.7688 0.2502,-1.0733 h 0.6266 v 6.2908 h -0.6266 c -0.0337,-0.301 -0.1153,-0.6744 -0.2502,-1.1241 -0.135,-0.4497 -0.2641,-0.7578 -0.382,-0.9283 -0.1828,-0.2536 -0.3964,-0.4312 -0.6437,-0.5257 -0.2473,-0.0942 -0.5308,-0.1413 -0.8571,-0.1413 h -1.1998 v 4.3436 c 0,0.4534 0.0253,0.8123 0.0758,1.077 0.0534,0.2647 0.1518,0.4712 0.2922,0.6128 0.1379,0.1339 0.3263,0.221 0.5648,0.2647 0.2389,0.0434 0.5651,0.0616 0.9752,0.0616 0.1939,0 0.4243,-0.004 0.6913,-0.0111 0.2697,-0.003 0.5059,-0.0252 0.7082,-0.0615 0.2302,-0.0364 0.4467,-0.0906 0.6461,-0.1595 0.2025,-0.0726 0.3514,-0.1742 0.4495,-0.3081 0.2644,-0.3481 0.5593,-0.8775 0.8881,-1.5882 0.3318,-0.7107 0.548,-1.2435 0.6519,-1.599 h 0.6014 l -0.2221,4.6954 h -10.9588 v -0.8304 c 0.1544,-0.0108 0.3625,-0.0397 0.6266,-0.0834 0.2641,-0.0434 0.4496,-0.0905 0.5593,-0.1484 0.2078,-0.1126 0.3482,-0.2576 0.4188,-0.4315 0.0728,-0.1705 0.1094,-0.3952 0.1094,-0.6636 v -10.6307 c 0,-0.2576 -0.0308,-0.4678 -0.0929,-0.6347 -0.0589,-0.1668 -0.2049,-0.3155 -0.4353,-0.4496 -0.1434,-0.0869 -0.3431,-0.1632 -0.6014,-0.2355 -0.2586,-0.069 -0.4525,-0.1161 -0.5845,-0.1379 v -0.8267 h 10.3575 z m 11.0964,11.229 h -5.1449 v -0.7759 c 0.267,-0.0219 0.4919,-0.0508 0.6742,-0.0905 0.1799,-0.0401 0.2728,-0.1161 0.2728,-0.2395 0,-0.0545 -0.0253,-0.145 -0.0702,-0.2647 -0.0479,-0.1197 -0.1068,-0.2536 -0.1771,-0.4023 -0.1039,-0.2213 -0.2838,-0.5694 -0.5395,-1.0407 -0.2557,-0.4749 -0.4946,-0.9138 -0.7195,-1.3198 -0.3201,0.4749 -0.5871,0.8846 -0.8008,1.222 -0.2133,0.3407 -0.4382,0.707 -0.6742,1.0948 -0.0815,0.1271 -0.1404,0.2431 -0.1715,0.3518 -0.0337,0.1053 -0.0505,0.1705 -0.0505,0.1884 0,0.1634 0.0897,0.2902 0.2667,0.3736 0.18,0.0834 0.391,0.1269 0.638,0.1269 v 0.7759 h -3.3412 v -0.7759 c 0.4441,-0.1198 0.7982,-0.3118 1.0652,-0.5729 0.267,-0.261 0.4469,-0.4641 0.5395,-0.6054 0.4017,-0.5512 0.7389,-1.0117 1.0173,-1.3743 0.278,-0.3663 0.6489,-0.8775 1.1153,-1.5374 -0.3117,-0.5584 -0.6913,-1.2435 -1.1351,-2.0484 -0.4469,-0.8086 -0.8149,-1.4722 -1.1127,-1.9869 -0.1489,-0.2539 -0.3289,-0.4533 -0.5425,-0.5912 -0.2133,-0.1376 -0.4916,-0.2284 -0.8318,-0.2681 v -0.776 h 5.03 v 0.776 c -0.1828,0 -0.3596,0.0145 -0.5366,0.0397 -0.1741,0.0292 -0.2615,0.0797 -0.2615,0.1487 0,0.0581 0.0139,0.1271 0.0395,0.2139 0.0281,0.0834 0.0644,0.1742 0.1068,0.2647 0.1068,0.2284 0.2696,0.5583 0.4945,1.0006 0.225,0.4389 0.4664,0.8994 0.7247,1.378 0.2476,-0.3881 0.4554,-0.707 0.6214,-0.9535 0.1687,-0.2503 0.382,-0.5984 0.6461,-1.0515 0.0984,-0.1705 0.1602,-0.2973 0.1857,-0.3844 0.0253,-0.0834 0.0363,-0.1379 0.0363,-0.1594 0,-0.1198 -0.0592,-0.2287 -0.177,-0.3229 -0.1179,-0.0942 -0.3483,-0.1558 -0.694,-0.1739 v -0.776 h 3.2765 v 0.776 c -0.27,0.0542 -0.5312,0.1702 -0.784,0.3481 -0.2501,0.1776 -0.5143,0.4531 -0.7897,0.8301 -0.4272,0.5728 -0.7392,0.9936 -0.9328,1.2583 -0.1968,0.2647 -0.5172,0.707 -0.9694,1.3232 0.2528,0.4605 0.6179,1.1278 1.0957,2.0053 0.4777,0.8809 0.8881,1.6206 1.2364,2.2226 0.1459,0.2681 0.3119,0.4857 0.4974,0.6562 0.1829,0.1702 0.4748,0.2829 0.8765,0.3408 z m 5.2265,0.3407 c -0.7642,0 -1.4358,-0.1449 -2.02,-0.4312 -0.5848,-0.2865 -1.0681,-0.6781 -1.4474,-1.1748 -0.3767,-0.5005 -0.6603,-1.0952 -0.8457,-1.784 -0.1884,-0.6852 -0.281,-1.4322 -0.281,-2.2408 0,-0.7359 0.1152,-1.4358 0.3428,-2.1028 0.2275,-0.6673 0.5366,-1.2509 0.9244,-1.7514 0.4017,-0.5183 0.8991,-0.9317 1.495,-1.2398 0.5955,-0.3084 1.2532,-0.4605 1.9724,-0.4605 1.0088,0 1.807,0.2466 2.3944,0.736 0.5871,0.4931 0.8823,1.1567 0.8823,1.9942 0,0.5075 -0.1068,0.9209 -0.3149,1.2327 -0.2081,0.3081 -0.5674,0.4642 -1.0788,0.4642 -0.4104,0 -0.7561,-0.1271 -1.0312,-0.3808 -0.2786,-0.2539 -0.4162,-0.5876 -0.4162,-0.9972 0,-0.3481 0.0424,-0.6926 0.1324,-1.0333 0.087,-0.3371 0.1404,-0.5984 0.1544,-0.7723 -0.0592,-0.1305 -0.135,-0.2247 -0.2305,-0.2936 -0.0929,-0.069 -0.2388,-0.1016 -0.4356,-0.1016 -0.2473,0 -0.4719,0.0761 -0.6742,0.2247 -0.2023,0.1487 -0.3936,0.4097 -0.5677,0.7833 -0.1713,0.3553 -0.3065,0.8302 -0.4075,1.4248 -0.1013,0.5947 -0.1547,1.3091 -0.1547,2.1466 0,1.2617 0.2304,2.2771 0.6884,3.0493 0.458,0.7723 1.006,1.1567 1.6439,1.1567 0.6072,0 1.0933,-0.1742 1.4529,-0.526 0.3596,-0.3515 0.6774,-0.8483 0.9583,-1.4937 l 0.6179,0.5546 c -0.1712,0.4316 -0.3738,0.8268 -0.6094,1.1823 -0.2363,0.3589 -0.5198,0.6743 -0.849,0.9535 -0.3456,0.29 -0.6965,0.5076 -1.0535,0.6562 -0.357,0.1487 -0.77,0.2247 -1.2422,0.2247 z m 9.2703,-0.3407 h -5.1621 v -0.7759 c 0.1434,-0.0145 0.281,-0.0327 0.4159,-0.0545 0.135,-0.0179 0.2531,-0.0542 0.3596,-0.105 0.1745,-0.0834 0.2952,-0.2068 0.357,-0.3663 0.0618,-0.1594 0.0955,-0.3699 0.0955,-0.6309 v -11.7692 c 0,-0.2718 -0.0421,-0.5187 -0.1292,-0.7505 -0.0841,-0.2286 -0.1967,-0.4062 -0.3398,-0.5257 -0.1097,-0.0908 -0.2757,-0.1813 -0.5004,-0.2647 -0.222,-0.0871 -0.4159,-0.1342 -0.5871,-0.1486 v -0.776 l 4.1416,-0.2758 0.1239,0.1706 v 14.2023 c 0,0.261 0.0337,0.4749 0.1065,0.6343 0.0706,0.1632 0.1858,0.2937 0.3457,0.3845 0.1097,0.0652 0.2249,0.1197 0.3457,0.1705 0.121,0.0505 0.2644,0.0831 0.4272,0.105 z m 11.5321,-0.2247 -3.9257,0.3081 -0.1237,-0.1486 v -1.3888 h -0.0505 c -0.1854,0.2176 -0.368,0.4315 -0.5479,0.6417 -0.1771,0.2069 -0.3904,0.3989 -0.6379,0.5694 -0.2781,0.1884 -0.5451,0.33 -0.7924,0.4242 -0.2499,0.0905 -0.6156,0.1379 -1.093,0.1379 -0.8289,0 -1.4642,-0.3229 -1.9054,-0.9683 -0.4408,-0.6418 -0.6628,-1.5516 -0.6628,-2.7302 v -4.7788 c 0,-0.2755 -0.0395,-0.5002 -0.1237,-0.6744 -0.0815,-0.1739 -0.1912,-0.3263 -0.3291,-0.4605 -0.1094,-0.1086 -0.2528,-0.1847 -0.4269,-0.2283 -0.1771,-0.0471 -0.3344,-0.0761 -0.4778,-0.0906 v -0.7759 l 3.993,-0.2755 0.09,0.1595 v 7.063 c 0,0.7288 0.1097,1.2653 0.3259,1.6134 0.2166,0.3481 0.5143,0.522 0.8937,0.522 0.3877,0 0.7389,-0.1305 1.048,-0.3952 0.312,-0.261 0.5369,-0.5401 0.68,-0.8375 v -5.725 c 0,-0.2428 -0.0366,-0.4568 -0.1068,-0.6491 -0.0728,-0.1921 -0.1767,-0.3481 -0.3146,-0.4676 -0.0984,-0.0834 -0.2389,-0.1415 -0.4214,-0.1705 -0.1855,-0.0289 -0.3738,-0.0471 -0.5648,-0.0616 v -0.7759 l 3.993,-0.2755 0.1233,0.1595 v 8.1978 c 0,0.2502 0.0366,0.4605 0.1153,0.6344 0.076,0.1705 0.1883,0.3192 0.3372,0.4389 0.1042,0.0871 0.2389,0.145 0.4075,0.1739 0.1657,0.0326 0.3346,0.0545 0.4975,0.0618 z m 4.4791,0.5873 c -0.5311,0 -1.0512,-0.1016 -1.5597,-0.3047 -0.5056,-0.2029 -0.9018,-0.4168 -1.1801,-0.6418 l -0.2473,0.7218 h -0.6437 l -0.1065,-3.9632 h 0.6013 c 0.0813,0.3192 0.2192,0.6781 0.413,1.0807 0.191,0.3986 0.4101,0.7578 0.6577,1.0767 0.2586,0.3191 0.5535,0.5875 0.8849,0.8085 0.3318,0.2177 0.6888,0.33 1.0652,0.33 0.5001,0 0.871,-0.1268 1.1156,-0.3771 0.2441,-0.2539 0.368,-0.6417 0.368,-1.1637 0,-0.2829 -0.0563,-0.5187 -0.1657,-0.7036 -0.1097,-0.1813 -0.2615,-0.3408 -0.4524,-0.475 -0.2137,-0.145 -0.4499,-0.2647 -0.7053,-0.3626 -0.2531,-0.0978 -0.5677,-0.221 -0.9415,-0.3625 -0.3736,-0.1413 -0.694,-0.2829 -0.9581,-0.4279 -0.267,-0.145 -0.5424,-0.3733 -0.8292,-0.6851 -0.247,-0.2755 -0.4437,-0.6092 -0.5926,-1.0007 -0.1463,-0.3881 -0.222,-0.8523 -0.222,-1.3924 0,-0.997 0.3259,-1.8056 0.9751,-2.4184 0.6519,-0.6165 1.5031,-0.9246 2.557,-0.9246 0.5,0 0.958,0.0652 1.3797,0.1957 0.4185,0.1306 0.7726,0.2758 1.0565,0.4279 l 0.1744,-0.6236 h 0.6237 l 0.1321,3.6221 h -0.5846 c -0.1912,-0.7359 -0.5198,-1.374 -0.9862,-1.9071 -0.4667,-0.5365 -0.9693,-0.8012 -1.5063,-0.8012 -0.4243,0 -0.7557,0.1124 -0.9975,0.3371 -0.2415,0.2284 -0.3625,0.5438 -0.3625,0.9464 0,0.5402 0.177,0.928 0.5311,1.1675 0.3541,0.2429 0.8487,0.4676 1.4866,0.6815 0.9833,0.3265 1.6999,0.7688 2.1579,1.3343 0.4553,0.562 0.6829,1.2801 0.6829,2.1502 0,1.1601 -0.3541,2.0595 -1.0594,2.6975 -0.7052,0.6381 -1.6241,0.9573 -2.7621,0.9573 z m 10.0345,-0.3626 h -5.2013 v -0.7759 c 0.1431,-0.0145 0.2836,-0.0327 0.4185,-0.0545 0.1379,-0.0179 0.256,-0.0542 0.3541,-0.105 0.1771,-0.0834 0.3007,-0.2068 0.3709,-0.3663 0.0732,-0.1594 0.1069,-0.3699 0.1069,-0.6309 v -6.1818 c 0,-0.2503 -0.0421,-0.4679 -0.1321,-0.6528 -0.0871,-0.1884 -0.1968,-0.3408 -0.3285,-0.4531 -0.0987,-0.0834 -0.2476,-0.1669 -0.447,-0.2429 -0.2023,-0.08 -0.3849,-0.1305 -0.548,-0.1487 v -0.7759 l 4.0325,-0.2755 0.1234,0.1595 v 8.4336 c 0,0.2465 0.0423,0.4567 0.1236,0.6307 0.0816,0.1742 0.1997,0.3047 0.3544,0.3881 0.1094,0.0652 0.2304,0.1197 0.3622,0.1705 0.132,0.0505 0.2699,0.0831 0.4104,0.105 z m -1.1998,-14.4886 c 0,0.5365 -0.1603,0.997 -0.4836,1.374 -0.3201,0.3808 -0.6994,0.5695 -1.138,0.5695 -0.4466,0 -0.8289,-0.1887 -1.1493,-0.5695 -0.3204,-0.377 -0.4803,-0.8375 -0.4803,-1.374 0,-0.5402 0.1599,-0.9972 0.4803,-1.3814 0.3204,-0.3807 0.7027,-0.5731 1.1493,-0.5731 0.4441,0 0.826,0.1924 1.1435,0.5731 0.3178,0.3842 0.4781,0.8412 0.4781,1.3814 z m 11.3437,4.7281 c -0.247,0.0471 -0.4888,0.1668 -0.7221,0.3589 -0.2334,0.1921 -0.4244,0.4894 -0.579,0.892 -0.3849,1.0332 -0.7613,2.0776 -1.1322,3.129 -0.371,1.0515 -0.7335,2.0703 -1.0904,3.0528 -0.1095,0.2973 -0.236,0.6817 -0.3736,1.1496 -0.1404,0.4675 -0.2586,0.8917 -0.3514,1.2724 h -1.5145 c -0.6324,-1.889 -1.1716,-3.459 -1.6186,-4.7025 -0.4467,-1.2472 -0.9189,-2.5852 -1.4189,-4.0174 -0.1153,-0.3336 -0.2952,-0.5946 -0.5396,-0.7867 -0.2446,-0.1887 -0.4916,-0.3084 -0.7447,-0.3481 v -0.776 h 5.0721 v 0.776 c -0.1884,0.007 -0.4075,0.0579 -0.6603,0.1594 -0.2528,0.0979 -0.3796,0.2247 -0.3796,0.3808 0,0.0434 0.0116,0.1052 0.0339,0.192 0.0224,0.0835 0.0505,0.1813 0.0813,0.2866 0.1773,0.5365 0.4414,1.3124 0.7952,2.3242 0.3541,1.0151 0.7279,2.081 1.1241,3.1979 0.2754,-0.7725 0.5366,-1.5266 0.7868,-2.2662 0.2502,-0.7397 0.5593,-1.6861 0.9244,-2.8318 0.0508,-0.1705 0.079,-0.3081 0.0871,-0.4133 0.008,-0.1087 0.0142,-0.1776 0.0142,-0.2139 0,-0.1269 -0.0476,-0.2392 -0.1463,-0.3337 -0.0955,-0.0942 -0.2078,-0.1776 -0.3398,-0.2499 -0.1376,-0.069 -0.27,-0.1235 -0.3962,-0.1598 -0.1265,-0.0363 -0.2304,-0.0578 -0.3117,-0.0723 v -0.776 h 3.3998 z"
       style="fill:#e30016;fill-rule:evenodd"
       id="path876" />
    <path
       d="m 424.7776,456.4422 c -0.1913,0.4026 -0.4243,0.7834 -0.694,1.1422 -0.2728,0.3553 -0.5819,0.6634 -0.9276,0.9173 -0.368,0.2684 -0.7389,0.4749 -1.1153,0.6128 -0.3767,0.1376 -0.8066,0.2065 -1.2956,0.2065 -0.8121,0 -1.5144,-0.1486 -2.1045,-0.446 -0.5903,-0.2973 -1.0764,-0.6996 -1.4613,-1.2001 -0.3819,-0.5038 -0.6716,-1.0985 -0.8599,-1.7802 -0.1881,-0.6852 -0.2839,-1.4248 -0.2839,-2.226 0,-0.7218 0.1042,-1.4143 0.3094,-2.0777 0.2049,-0.6599 0.4972,-1.2508 0.8765,-1.7658 0.3738,-0.5038 0.8431,-0.9101 1.4108,-1.2219 0.5674,-0.3118 1.2053,-0.4676 1.9077,-0.4676 0.7674,0 1.3995,0.1195 1.8912,0.3589 0.4945,0.2429 0.9049,0.5765 1.2282,1.0007 0.3117,0.4026 0.5396,0.8775 0.6826,1.4285 0.1434,0.5475 0.2136,1.124 0.2136,1.7258 v 0.6891 h -5.5637 c 0,1.4537 0.2165,2.556 0.6493,3.3138 0.4353,0.7577 1.1237,1.1385 2.0679,1.1385 0.5142,0 0.9777,-0.1813 1.391,-0.5476 0.4104,-0.366 0.7613,-0.8264 1.0536,-1.3848 z m -3.1444,-4.0355 c 0,-0.4278 -0.0168,-0.8628 -0.0479,-1.3087 -0.0337,-0.446 -0.0926,-0.8086 -0.1741,-1.0952 -0.0929,-0.3299 -0.2221,-0.5836 -0.3823,-0.7541 -0.1628,-0.1668 -0.368,-0.2539 -0.6123,-0.2539 -0.4247,0 -0.7616,0.2758 -1.0147,0.8304 -0.2528,0.551 -0.3877,1.4248 -0.4101,2.6215 z m 14.4324,6.9762 c -0.8571,0 -1.6581,-0.1779 -2.4055,-0.5368 -0.7447,-0.3552 -1.3969,-0.8738 -1.9501,-1.5553 -0.5424,-0.6636 -0.9722,-1.4866 -1.2842,-2.4691 -0.312,-0.9791 -0.4693,-2.0595 -0.4693,-3.2343 0,-1.1675 0.1573,-2.2516 0.4719,-3.2451 0.3175,-0.9936 0.7589,-1.8564 1.3321,-2.5852 0.559,-0.7178 1.2306,-1.2727 2.0148,-1.6643 0.7866,-0.3915 1.6271,-0.5909 2.5207,-0.5909 0.6461,0 1.2364,0.1015 1.7701,0.3044 0.5309,0.2031 0.9807,0.4315 1.3487,0.6854 l 0.5114,-0.5838 h 0.7166 l 0.0731,5.5003 h -0.725 c -0.4103,-1.6788 -0.9049,-2.9078 -1.481,-3.6945 -0.5758,-0.787 -1.2785,-1.1786 -2.1074,-1.1786 -1.0312,0 -1.818,0.5839 -2.3546,1.7551 -0.5367,1.1745 -0.8066,2.8172 -0.8066,4.9346 0,1.1964 0.0929,2.2189 0.2754,3.0675 0.1855,0.8446 0.4244,1.5263 0.7195,2.0413 0.3202,0.5401 0.6966,0.9354 1.1293,1.1856 0.4328,0.2536 0.9134,0.377 1.4416,0.377 0.7671,0 1.4529,-0.2683 2.0514,-0.8048 0.6013,-0.5402 1.1493,-1.3562 1.6438,-2.4439 l 0.7079,0.5512 c -0.2357,0.6236 -0.5056,1.182 -0.8063,1.6714 -0.3035,0.4931 -0.6518,0.9172 -1.0451,1.2727 -0.4356,0.3878 -0.9133,0.6925 -1.439,0.9135 -0.5227,0.2176 -1.1406,0.3266 -1.8542,0.3266 z m 15.2551,-0.6273 c -0.2417,0.1376 -0.5282,0.261 -0.857,0.3734 -0.3289,0.1123 -0.6774,0.1705 -1.0455,0.1705 -0.6742,0 -1.1716,-0.1305 -1.4891,-0.3881 -0.3204,-0.2574 -0.5367,-0.6273 -0.6519,-1.1093 h -0.0479 c -0.1881,0.2391 -0.368,0.4457 -0.5395,0.6162 -0.1742,0.1705 -0.3596,0.3155 -0.5561,0.4352 -0.2586,0.1557 -0.5062,0.2718 -0.7447,0.3444 -0.2389,0.076 -0.5732,0.1124 -1.0005,0.1124 -0.6379,0 -1.1801,-0.2429 -1.6299,-0.7289 -0.4496,-0.4857 -0.6771,-1.1275 -0.6771,-1.9289 0,-0.4605 0.0505,-0.8483 0.1489,-1.1712 0.0984,-0.3226 0.2388,-0.6091 0.4214,-0.8557 0.1631,-0.2284 0.3544,-0.4131 0.5706,-0.5617 0.2165,-0.1487 0.4551,-0.2903 0.7137,-0.4171 0.4916,-0.2321 1.0846,-0.4749 1.7759,-0.7252 0.6939,-0.2539 1.1972,-0.4786 1.5173,-0.6743 v -1.0225 c 0,-0.1776 -0.011,-0.4097 -0.0336,-0.6999 -0.0227,-0.29 -0.0703,-0.5365 -0.1405,-0.7323 -0.0761,-0.2284 -0.1968,-0.4171 -0.3625,-0.5728 -0.1657,-0.1561 -0.3823,-0.2358 -0.649,-0.2358 -0.2417,0 -0.4443,0.0434 -0.6071,0.1342 -0.1603,0.0871 -0.2923,0.1776 -0.3904,0.2684 0.0168,0.145 0.0644,0.3589 0.1405,0.6489 0.0757,0.2902 0.1152,0.5694 0.1152,0.8412 0,0.1197 -0.0256,0.2683 -0.0731,0.4496 -0.0505,0.1813 -0.1211,0.3263 -0.2163,0.4316 -0.1268,0.1413 -0.2673,0.2499 -0.4217,0.3299 -0.1573,0.0761 -0.399,0.1158 -0.7221,0.1158 -0.4609,0 -0.8091,-0.145 -1.0454,-0.4313 -0.2359,-0.2865 -0.3541,-0.6599 -0.3541,-1.1203 0,-0.3953 0.1237,-0.7507 0.3683,-1.0662 0.2415,-0.3152 0.5396,-0.5765 0.8908,-0.7831 0.3453,-0.2102 0.7447,-0.377 1.1943,-0.4931 0.4492,-0.116 0.868,-0.1739 1.2529,-0.1739 0.5314,0 1.0202,0.0397 1.4642,0.1195 0.4441,0.0834 0.8457,0.2502 1.2024,0.5075 0.3402,0.2466 0.6101,0.6057 0.8095,1.077 0.2023,0.4712 0.3007,1.0841 0.3007,1.8418 0,0.8015 -0.0113,1.7514 -0.0366,2.8462 -0.0252,1.0989 -0.0366,1.8203 -0.0366,2.1684 0,0.3189 0.0366,0.5692 0.1097,0.7541 0.0758,0.185 0.1884,0.3226 0.3428,0.4134 0.0926,0.0579 0.2389,0.0905 0.4412,0.1016 0.1996,0.0108 0.3822,0.0181 0.5479,0.0181 z m -4.0914,-5.5329 c -0.3091,0.1339 -0.6124,0.2899 -0.916,0.4638 -0.3006,0.1705 -0.5479,0.3555 -0.7392,0.5439 -0.2049,0.1995 -0.3622,0.4534 -0.4774,0.7615 -0.1152,0.3081 -0.1741,0.6707 -0.1741,1.0877 0,0.5547 0.0981,0.9536 0.2922,1.2001 0.1965,0.2503 0.4354,0.3737 0.7221,0.3737 0.3007,0 0.5477,-0.08 0.7445,-0.2395 0.1941,-0.1594 0.3654,-0.3552 0.5143,-0.5909 z m 14.7496,0.5836 c 0,1.4937 -0.3849,2.7775 -1.1604,3.8471 -0.7728,1.0696 -1.7535,1.6024 -2.9394,1.6024 -0.5253,0 -0.9555,-0.069 -1.284,-0.2066 -0.3288,-0.1378 -0.6014,-0.3047 -0.815,-0.5041 h -0.0647 v 2.9841 c 0,0.2465 0.0421,0.4641 0.1265,0.6491 0.0842,0.185 0.2052,0.3189 0.3599,0.4023 0.146,0.08 0.3567,0.1487 0.6293,0.2139 0.2696,0.0619 0.4971,0.1016 0.6771,0.1161 v 0.787 h -5.9431 v -0.787 c 0.1379,-0.0145 0.312,-0.0398 0.5198,-0.0798 0.2081,-0.0397 0.3654,-0.0797 0.4693,-0.1231 0.1744,-0.0763 0.2952,-0.2105 0.3567,-0.3989 0.0647,-0.185 0.0958,-0.3989 0.0958,-0.6417 v -10.8665 c -0.0169,-0.2321 -0.0589,-0.4389 -0.1266,-0.6165 -0.0702,-0.1776 -0.1767,-0.3336 -0.3259,-0.4675 -0.1094,-0.0908 -0.2557,-0.1669 -0.4353,-0.2287 -0.1829,-0.0579 -0.3599,-0.1013 -0.5367,-0.1195 v -0.7759 l 4.0096,-0.2755 0.1236,0.1376 v 1.1786 l 0.0647,0.0215 c 0.3625,-0.4749 0.7645,-0.8446 1.2054,-1.1059 0.444,-0.261 0.8797,-0.3915 1.315,-0.3915 1.1354,0 2.0319,0.5186 2.6922,1.5556 0.6577,1.0369 0.9862,2.4002 0.9862,4.0934 z m -2.9534,0.0437 c 0,-0.5331 -0.0308,-1.0407 -0.0926,-1.523 -0.0592,-0.4857 -0.1657,-0.9209 -0.3204,-1.3017 -0.1489,-0.3844 -0.3454,-0.6888 -0.5871,-0.9135 -0.2447,-0.2287 -0.5425,-0.341 -0.8937,-0.341 -0.3567,0 -0.6434,0.0797 -0.857,0.2394 -0.2136,0.1594 -0.402,0.366 -0.5593,0.6199 v 6.0224 c 0.0337,0.1415 0.0955,0.3265 0.1884,0.5475 0.0928,0.2247 0.188,0.4026 0.2809,0.5368 0.1376,0.1921 0.2923,0.3334 0.4693,0.4241 0.1744,0.0942 0.368,0.1376 0.5761,0.1376 0.5425,0 0.9778,-0.377 1.3037,-1.1311 0.326,-0.7541 0.4917,-1.86 0.4917,-3.3174 z m 7.8258,5.4929 c -0.5308,0 -1.0509,-0.1016 -1.5594,-0.3047 -0.5059,-0.2029 -0.9021,-0.4168 -1.1801,-0.6418 l -0.2476,0.7218 h -0.6434 l -0.1065,-3.9632 h 0.6013 c 0.0813,0.3192 0.2192,0.6781 0.4128,1.0807 0.1912,0.3986 0.4103,0.7578 0.6576,1.0767 0.2586,0.3191 0.5535,0.5875 0.8852,0.8085 0.3318,0.2177 0.6885,0.33 1.0649,0.33 0.5003,0 0.8713,-0.1268 1.1156,-0.3771 0.2444,-0.2539 0.368,-0.6417 0.368,-1.1637 0,-0.2829 -0.056,-0.5187 -0.1657,-0.7036 -0.1097,-0.1813 -0.2615,-0.3408 -0.4524,-0.475 -0.2134,-0.145 -0.4496,-0.2647 -0.705,-0.3626 -0.2531,-0.0978 -0.568,-0.221 -0.9415,-0.3625 -0.3738,-0.1413 -0.694,-0.2829 -0.9584,-0.4279 -0.267,-0.145 -0.5421,-0.3733 -0.8289,-0.6851 -0.2473,-0.2755 -0.444,-0.6092 -0.5929,-1.0007 -0.146,-0.3881 -0.222,-0.8523 -0.222,-1.3924 0,-0.997 0.3262,-1.8056 0.9751,-2.4184 0.6519,-0.6165 1.5034,-0.9246 2.557,-0.9246 0.5003,0 0.9583,0.0652 1.3797,0.1957 0.4185,0.1306 0.7729,0.2758 1.0565,0.4279 l 0.1744,-0.6236 h 0.6237 l 0.1324,3.6221 h -0.5849 c -0.1909,-0.7359 -0.5198,-1.374 -0.9862,-1.9071 -0.4664,-0.5365 -0.9693,-0.8012 -1.506,-0.8012 -0.4243,0 -0.756,0.1124 -0.9975,0.3371 -0.2418,0.2284 -0.3628,0.5438 -0.3628,0.9464 0,0.5402 0.177,0.928 0.5314,1.1675 0.3541,0.2429 0.8484,0.4676 1.4863,0.6815 0.9836,0.3265 1.7002,0.7688 2.1582,1.3343 0.455,0.562 0.6829,1.2801 0.6829,2.1502 0,1.1601 -0.3544,2.0595 -1.0594,2.6975 -0.7055,0.6381 -1.6241,0.9573 -2.7624,0.9573 z"
       style="fill:#e30016;fill-rule:evenodd"
       id="path878" />
    <path
       d="m 245.659,390.2528 c 14.5804,-5.5157 30.3133,-15.7948 38.2191,-22.85 -16.2243,33.5329 -32.8313,55.148 -75.4654,73.6962 26.0021,-25.6469 30.6872,-35.9619 37.2463,-50.8462 z m -49.0607,-51.7804 c -14.4964,32.9485 1.4382,46.3877 27.4242,43.6572 38.7547,-3.4371 84.7939,-37.7834 101.6338,-64.2462 -11.6863,23.0608 -37.2001,43.9328 -62.7305,58.5366 -19.2421,11.4313 -40.545,19.4541 -56.439,17.2102 -22.492,-3.1756 -30.4635,-25.4339 -9.8885,-55.1578 z m 28.16,-22.4119 c -14.4968,21.6397 -9.3208,37.2463 13.3097,38.4283 19.3699,1.0115 35.1454,-4.4568 51.9915,-12.5216 16.9388,-8.6778 31.8992,-20.4993 36.9421,-26.3642 -5.2296,6.5659 -16.4089,17.8403 -31.3636,27.3306 -12.969,8.2302 -49.4084,24.1076 -70.8579,18.6917 -9.5508,-2.4115 -14.3041,-9.1327 -14.8325,-15.9959 -0.798,-10.3621 6.9811,-22.537 14.8107,-29.5689 z M 192.2157,304.477 c 5.3371,11.0288 -2.3032,16.4147 -7.8748,14.9934 -3.2128,-0.3204 -6.5494,-6.0356 -4.489,-10.838 2.3076,-5.3775 9.246,-11.7256 18.8567,-20.027 7.9637,-6.8784 17.7321,-15.1052 29.8499,-23.0313 24.1418,-15.7902 44.2394,-20.5236 55.4529,-7.1231 13.8731,16.998 12.248,55.6239 8.4437,78.5656 -2.8993,1.2966 -26.1818,13.6312 -42.8138,12.9442 -1.6398,-11.6785 -9.6044,-26.3339 -20.8485,-38.9283 7.2618,3.4348 25.3584,10.7908 40.592,-10.3405 3.8553,-6.9311 5.1834,-10.2073 5.3829,-15.5248 1.3491,-15.4629 -10.228,-23.873 -28.5576,-18.7497 -8.151,2.2784 -16.1099,7.0911 -23.3276,12.0826 -11.6366,8.0472 -21.1693,17.1494 -30.6668,25.9769 z m 60.4826,-18.7798 c 5.0487,1.865 8.6413,6.6337 8.6413,12.2209 0,7.2119 -5.9831,13.0606 -13.3607,13.0606 -7.3774,0 -13.3605,-6.053 -13.3605,-13.0606 0,-7.0076 5.8297,-13.1346 12.6267,-13.7453 l 14.5968,-7.6792 z m 83.9478,2.3379 c 7.3777,0 13.3607,5.8486 13.3607,13.0603 0,7.2119 -5.983,13.0605 -13.3607,13.0605 -7.3774,0 -13.3605,-5.8486 -13.3605,-13.0605 0,-7.2117 5.9831,-13.0603 13.3605,-13.0603 z"
       style="fill:#e30016;fill-rule:evenodd"
       id="path880" />
    <path
       d="m 348.2754,285.498 c 72.1011,-69.8757 85.1055,-131.5588 44.7151,-190.6803 h -26.2096 c 45.2944,49.4418 45.6833,114.1142 -18.5055,190.6803 z m 1.7359,-1.0598 c 91.9251,-65.7924 107.8393,-137.548 80.2726,-189.6205 h -26.8572 c 37.9841,62.3097 19.9282,125.2341 -53.4154,189.6205 z"
       style="fill:#e30016;fill-rule:evenodd"
       id="path882" />
    <path
       d="m 281.8989,480.1505 c -1.3454,2.2254 -2.9177,3.9376 -4.7087,5.1366 -1.7953,1.1952 -3.6771,1.7929 -5.6412,1.7929 -1.6053,0 -2.9303,-0.3997 -3.9784,-1.2028 -1.0481,-0.8028 -1.5723,-1.8 -1.5723,-2.999 0,-0.6929 0.1693,-1.3529 0.5077,-1.9761 0.3385,-0.6233 0.8375,-1.1953 1.498,-1.7196 0.6603,-0.506 1.3865,-0.8945 2.1789,-1.1586 0.7882,-0.264 1.6055,-0.3995 2.4512,-0.3995 1.0484,0 1.8942,0.2382 2.534,0.7149 0.6396,0.4765 0.9614,1.0999 0.9614,1.8734 0,0.616 -0.1734,1.2247 -0.524,1.8223 -0.3508,0.5975 -0.8543,1.1512 -1.5062,1.6608 -0.4912,0.3776 -0.9947,0.6673 -1.5063,0.8689 -0.5118,0.2017 -1.0153,0.3008 -1.5145,0.3008 -0.5902,0 -1.0648,-0.154 -1.4238,-0.4658 -0.3589,-0.3116 -0.5366,-0.7296 -0.5366,-1.2538 0,-0.8214 0.4663,-1.6095 1.3951,-2.3576 0.9325,-0.7479 1.7785,-1.1217 2.5461,-1.1217 0.0702,0 0.128,0.007 0.161,0.0219 0.037,0.0147 0.0577,0.0366 0.0577,0.0622 0,0.0735 -0.1278,0.1469 -0.3755,0.2165 -0.2518,0.0732 -0.4624,0.1393 -0.6396,0.2053 -0.8172,0.3152 -1.4775,0.7553 -1.985,1.3198 -0.5076,0.5646 -0.7594,1.1329 -0.7594,1.6975 0,0.3594 0.1157,0.649 0.3508,0.8763 0.2352,0.2236 0.5364,0.3374 0.9078,0.3374 0.45,0 0.9163,-0.1283 1.4074,-0.3814 0.4869,-0.2529 0.974,-0.6269 1.4648,-1.122 0.5571,-0.5535 0.9822,-1.0925 1.2834,-1.6277 0.2973,-0.5316 0.4458,-1.0083 0.4458,-1.4226 0,-0.5939 -0.2518,-1.0632 -0.751,-1.4079 -0.4995,-0.3446 -1.1804,-0.5169 -2.0428,-0.5169 -1.6259,0 -3.0621,0.5022 -4.3124,1.5068 -1.2506,1.001 -1.8736,2.1375 -1.8736,3.4025 0,1.1108 0.4786,2.0384 1.4402,2.7827 0.9574,0.7443 2.1542,1.1182 3.5902,1.1182 1.7251,0 3.2642,-0.473 4.618,-1.4224 1.3535,-0.9497 2.6576,-2.4785 3.9162,-4.583 -1.6918,0.6232 -2.9548,1.5362 -3.7842,2.7388 -0.132,0.1796 -0.2147,0.2676 -0.2558,0.2676 -0.0494,0 -0.0784,-0.011 -0.095,-0.0366 -0.0166,-0.0257 -0.0249,-0.0697 -0.0249,-0.1357 0,-0.4511 0.4251,-1.012 1.2752,-1.6902 0.8504,-0.6747 1.9107,-1.2429 3.186,-1.7012 1.3783,-2.035 2.765,-3.758 4.164,-5.1661 1.3989,-1.4114 2.3275,-2.1191 2.7895,-2.1191 0.0208,0 0.0415,0.007 0.0538,0.0221 0.0124,0.0147 0.0166,0.033 0.0166,0.0549 0,0.0513 -0.161,0.2383 -0.4828,0.5684 -1.7418,1.7708 -3.2809,3.8277 -4.6178,6.1778 0.3299,-0.0734 0.5734,-0.1247 0.7344,-0.1613 0.1568,-0.0366 0.2931,-0.0697 0.4168,-0.0991 0.3468,-0.5205 0.7057,-0.9128 1.0813,-1.1731 0.3713,-0.264 0.7634,-0.3923 1.1636,-0.3923 0.2105,0 0.3755,0.0549 0.5035,0.1649 0.1238,0.11 0.1857,0.2567 0.1857,0.4363 0,0.242 -0.161,0.4547 -0.4787,0.6379 -0.3178,0.1834 -0.8418,0.3557 -1.5764,0.5207 -0.351,0.5865 -0.6562,0.9972 -0.9039,1.2246 -0.2515,0.231 -0.5073,0.3446 -0.7757,0.3446 -0.0701,0 -0.1238,-0.0147 -0.161,-0.0366 -0.0371,-0.0257 -0.0535,-0.066 -0.0535,-0.1247 0,-0.0733 0.0577,-0.209 0.1734,-0.4069 0.1154,-0.2018 0.2805,-0.4437 0.4907,-0.7334 -0.2845,0.0513 -0.499,0.0953 -0.656,0.1321 -0.1525,0.0328 -0.2971,0.0696 -0.4332,0.1063 z m -0.3261,-7.9598 c -1.5022,0.5867 -2.6864,1.2907 -3.5531,2.1046 -0.8668,0.8176 -1.3,1.6278 -1.3,2.427 0,0.3814 0.1154,0.693 0.351,0.9349 0.2351,0.2458 0.5363,0.3667 0.9077,0.3667 0.9286,0 1.8364,-0.4546 2.7278,-1.3639 0.8913,-0.9092 1.3371,-1.8881 1.3371,-2.9331 0,-0.3006 -0.0371,-0.5792 -0.1154,-0.8323 -0.0744,-0.2528 -0.1941,-0.4876 -0.3551,-0.7039 z m 0.4209,-0.1283 c 0.1527,0.264 0.2683,0.5316 0.3427,0.8066 0.07,0.2714 0.1071,0.5499 0.1071,0.836 0,0.6232 -0.1527,1.2318 -0.4579,1.8331 -0.3095,0.5977 -0.7512,1.1476 -1.3329,1.6462 -0.446,0.3888 -0.9039,0.6894 -1.3744,0.9093 -0.4703,0.2162 -0.9037,0.3263 -1.2999,0.3263 -0.5033,0 -0.9077,-0.154 -1.2174,-0.462 -0.3095,-0.3078 -0.4664,-0.7111 -0.4664,-1.2135 0,-0.8727 0.45,-1.7415 1.3535,-2.6031 0.9039,-0.8653 2.1418,-1.5949 3.706,-2.1961 -0.3796,-0.2678 -0.7923,-0.4658 -1.2381,-0.6013 -0.4498,-0.1357 -0.9284,-0.2053 -1.4362,-0.2053 -1.0317,0 -2.0261,0.1979 -2.9918,0.5975 -0.9615,0.3959 -1.8322,0.9679 -2.604,1.7123 -0.1856,0.1723 -0.3962,0.3959 -0.6315,0.6744 -0.2309,0.2788 -0.3919,0.4218 -0.4829,0.4218 -0.0204,0 -0.0411,-0.0111 -0.0534,-0.033 -0.0124,-0.0221 -0.0207,-0.0625 -0.029,-0.1174 0,-0.1245 0.1073,-0.308 0.3218,-0.5609 0.2107,-0.2493 0.5201,-0.5537 0.9246,-0.913 0.7305,-0.6635 1.5763,-1.1842 2.5297,-1.5581 0.9573,-0.3703 1.9107,-0.5573 2.8597,-0.5573 0.6397,0 1.2298,0.0806 1.7787,0.2455 0.5489,0.1652 1.0317,0.4071 1.4528,0.7225 0.883,-0.2935 1.7497,-0.5134 2.5914,-0.6528 0.842,-0.1393 1.7086,-0.2089 2.6042,-0.2089 1.1553,0 2.4594,0.11 3.9245,0.3336 1.4607,0.2237 2.3235,0.3337 2.5791,0.3337 0.0662,0 0.1529,-0.004 0.2601,-0.011 0.1116,-0.007 0.1899,-0.0111 0.2351,-0.0111 0.0992,0 0.1734,0.0111 0.227,0.0257 0.0497,0.0183 0.0784,0.0404 0.0784,0.0624 0,0.1503 -0.2104,0.2677 -0.623,0.352 -0.417,0.088 -0.9944,0.1283 -1.7373,0.1283 -0.5614,0 -1.5312,-0.0881 -2.9013,-0.2713 -1.3702,-0.1833 -2.4471,-0.275 -3.2394,-0.275 -0.8707,0 -1.6095,0.0404 -2.2161,0.1174 -0.6108,0.0806 -1.1225,0.2015 -1.5435,0.3665 z m 2.4061,7.1641 c 0.524,-0.1284 0.8913,-0.2493 1.0935,-0.3594 0.2062,-0.1136 0.3095,-0.2381 0.3095,-0.3812 0,-0.066 -0.0207,-0.11 -0.062,-0.1357 -0.0371,-0.0256 -0.1074,-0.0404 -0.202,-0.0475 -0.1571,0 -0.3343,0.0841 -0.5407,0.2529 -0.2022,0.1687 -0.4045,0.3923 -0.5983,0.6709 z m 2.2696,0.924 c -0.1444,0 -0.2641,-0.0404 -0.3548,-0.1248 -0.095,-0.0806 -0.1404,-0.1868 -0.1404,-0.3152 0,-0.1796 0.0784,-0.3374 0.2311,-0.4729 0.1527,-0.1357 0.3299,-0.2053 0.5323,-0.2053 0.1444,0 0.2643,0.0366 0.355,0.1136 0.0948,0.0732 0.1404,0.1687 0.1404,0.2859 0,0.1834 -0.0784,0.352 -0.2354,0.4986 -0.1568,0.1466 -0.3342,0.2201 -0.5282,0.2201 z m -3.8915,5.0192 c -0.1859,0.2127 -0.3303,0.418 -0.4375,0.6051 -0.1031,0.1906 -0.1567,0.3446 -0.1567,0.4582 0,0.1062 0.033,0.1832 0.0947,0.231 0.0663,0.0475 0.1734,0.0696 0.3302,0.0696 0.289,0 0.7056,-0.1613 1.2464,-0.4839 0.5365,-0.3227 1.1884,-0.7994 1.9435,-1.4299 0.4705,-0.385 0.9288,-0.803 1.3744,-1.2465 0.4456,-0.4437 0.6973,-0.6638 0.7552,-0.6638 0.0495,0 0.0867,0.0112 0.1155,0.0295 0.029,0.0219 0.0413,0.0549 0.0413,0.0989 0,0.099 -0.1651,0.3189 -0.4952,0.6563 -0.3301,0.3337 -0.8172,0.7846 -1.4609,1.3528 -0.8089,0.6856 -1.5228,1.2099 -2.1418,1.5656 -0.6232,0.3594 -1.1307,0.539 -1.5228,0.539 -0.3551,0 -0.6273,-0.0807 -0.813,-0.2457 -0.1855,-0.1649 -0.2765,-0.4069 -0.2765,-0.7222 0,-0.6564 0.8543,-1.9799 2.5629,-3.9634 l 0.0245,-0.033 c 0.066,-0.0696 0.1487,-0.1687 0.256,-0.2897 0.4168,-0.5022 0.8584,-0.7515 1.3165,-0.7515 0.161,0 0.2888,0.0145 0.3795,0.044 0.095,0.0292 0.1404,0.0696 0.1404,0.1283 0,0.0513 -0.0249,0.121 -0.0784,0.2163 -0.0536,0.0917 -0.1199,0.1797 -0.1983,0.2676 z m 4.6427,0.198 2.4183,-2.7278 c 0.198,-0.2127 0.3548,-0.4143 0.4621,-0.6013 0.1112,-0.187 0.1651,-0.341 0.1651,-0.462 0,-0.0549 -0.0249,-0.1062 -0.0784,-0.1502 -0.0538,-0.044 -0.1116,-0.0625 -0.1776,-0.0625 -0.3465,0 -0.85,0.3228 -1.5103,0.9754 -0.6603,0.6526 -1.04,0.9789 -1.1348,0.9789 -0.0249,0 -0.0496,-0.011 -0.066,-0.0331 -0.0207,-0.0219 -0.0332,-0.0475 -0.0332,-0.0732 0,-0.066 0.0704,-0.1797 0.2065,-0.341 0.1362,-0.1614 0.3672,-0.3924 0.6891,-0.693 0.4662,-0.4509 0.883,-0.7845 1.2502,-1.0082 0.3676,-0.22 0.6935,-0.3336 0.974,-0.3336 0.2601,0 0.4746,0.0843 0.6522,0.2529 0.1774,0.1687 0.2683,0.385 0.2683,0.649 0,0.1357 -0.0249,0.2714 -0.0743,0.4106 -0.0456,0.1357 -0.1239,0.286 -0.227,0.4473 0.7386,-0.6122 1.3371,-1.0485 1.7867,-1.309 0.4539,-0.2564 0.8339,-0.3848 1.1391,-0.3848 0.2477,0 0.4498,0.0733 0.6025,0.2199 0.1529,0.1466 0.2313,0.3446 0.2313,0.5977 0,0.4289 -0.4004,1.1108 -1.1968,2.0495 -0.0826,0.0915 -0.1405,0.1614 -0.1816,0.2053 -0.0991,0.121 -0.2352,0.2824 -0.4128,0.4803 -0.747,0.8982 -1.1225,1.4409 -1.1225,1.6351 0,0.1431 0.0373,0.2493 0.1074,0.3154 0.0743,0.0696 0.1855,0.1026 0.3382,0.1026 0.3056,0 0.7512,-0.1832 1.3374,-0.5463 0.5857,-0.3665 1.2834,-0.9055 2.0962,-1.6132 0.3714,-0.3152 0.7512,-0.6671 1.1307,-1.0595 0.384,-0.3888 0.6109,-0.583 0.6852,-0.583 0.0494,0 0.0825,0.011 0.1072,0.0331 0.0247,0.0183 0.0372,0.0513 0.0372,0.0953 0,0.1136 -0.2065,0.3812 -0.6232,0.7992 -0.4127,0.4216 -0.9574,0.9019 -1.6259,1.4445 -0.7883,0.6526 -1.4692,1.1367 -2.0428,1.4483 -0.5736,0.3115 -1.0647,0.4655 -1.4775,0.4655 -0.3301,0 -0.594,-0.0841 -0.7923,-0.2566 -0.194,-0.1723 -0.2929,-0.4033 -0.2929,-0.6892 0,-0.2567 0.1031,-0.5609 0.3055,-0.9129 0.2061,-0.352 0.6643,-0.9423 1.3742,-1.771 0.4044,-0.4655 0.7013,-0.8396 0.8956,-1.1146 0.1938,-0.2749 0.2886,-0.4582 0.2886,-0.5535 0,-0.0623 -0.0164,-0.121 -0.0535,-0.1687 -0.0373,-0.0513 -0.0826,-0.077 -0.1405,-0.077 -0.3053,0 -0.8707,0.3154 -1.692,0.9497 -0.8211,0.6342 -1.6918,1.4482 -2.6121,2.4454 -0.2643,0.2859 -0.5778,0.6453 -0.9327,1.0742 -0.5861,0.7151 -1.1968,1.0742 -1.824,1.0742 -0.1031,0 -0.1857,-0.0145 -0.2475,-0.0475 -0.062,-0.0331 -0.0909,-0.0734 -0.0909,-0.1248 0,-0.077 0.0826,-0.2272 0.2476,-0.4508 0.1651,-0.2237 0.4539,-0.5537 0.8667,-1.001 z m 10.2013,-0.6013 c -0.1197,0.2018 -0.2064,0.3924 -0.2518,0.572 -0.0496,0.1759 -0.0743,0.3556 -0.0743,0.5353 0,0.2274 0.0743,0.4106 0.223,0.5425 0.1484,0.1321 0.3589,0.198 0.623,0.198 0.4911,0 1.1184,-0.2125 1.886,-0.6343 0.7674,-0.4216 1.6219,-1.0302 2.5627,-1.8221 0.3384,-0.2823 0.689,-0.6049 1.0566,-0.9789 0.3672,-0.3703 0.6106,-0.5573 0.7346,-0.5573 0.0287,0 0.0534,0.007 0.07,0.0257 0.0167,0.0183 0.0246,0.0513 0.0246,0.1026 0,0.0734 -0.1485,0.2603 -0.4456,0.5683 -0.3012,0.308 -0.6933,0.6782 -1.1842,1.1072 -0.97,0.8213 -1.8737,1.4556 -2.7156,1.8993 -0.842,0.4435 -1.5559,0.6671 -2.1459,0.6671 -0.5241,0 -0.9369,-0.154 -1.2464,-0.4655 -0.3052,-0.3116 -0.4579,-0.737 -0.4579,-1.276 0,-0.5645 0.2145,-1.1474 0.6479,-1.7487 0.429,-0.6015 1.0317,-1.155 1.8074,-1.6536 0.4663,-0.308 0.9329,-0.5463 1.3991,-0.7149 0.4705,-0.1687 0.8831,-0.253 1.2462,-0.253 0.2724,0 0.4869,0.0586 0.6356,0.176 0.1484,0.121 0.2228,0.2859 0.2228,0.5022 0,0.55 -0.425,1.1256 -1.2711,1.7232 -0.8458,0.5977 -1.9602,1.0926 -3.3467,1.4849 z m 0.1691,-0.4582 c 1.1678,-0.3301 2.1213,-0.7517 2.8598,-1.265 0.7388,-0.5096 1.106,-0.9899 1.106,-1.4409 0,-0.0953 -0.0453,-0.1759 -0.132,-0.2419 -0.0908,-0.0697 -0.1939,-0.1027 -0.3136,-0.1027 -0.326,0 -0.8212,0.2859 -1.4898,0.8543 -0.6686,0.5683 -1.3452,1.3015 -2.0304,2.1962 z m 6.7803,2.3611 c 0.7428,-0.1283 1.5186,-0.3959 2.3234,-0.7992 0.8047,-0.4033 1.6136,-0.9387 2.4183,-1.6061 0.3301,-0.2785 0.6767,-0.6084 1.0317,-0.9898 0.3589,-0.3776 0.5861,-0.5683 0.6728,-0.5683 0.0494,0 0.0823,0.007 0.0989,0.0219 0.0123,0.0148 0.0206,0.0442 0.0206,0.0844 0,0.1466 -0.26,0.4729 -0.7799,0.99 -0.5201,0.5169 -1.1267,1.0156 -1.8198,1.5032 -0.8752,0.6013 -1.7418,1.0559 -2.5959,1.3639 -0.8583,0.308 -1.692,0.462 -2.505,0.462 -0.5654,0 -0.9944,-0.0844 -1.2877,-0.2567 -0.2928,-0.1723 -0.4415,-0.4216 -0.4415,-0.7407 0,-0.2859 0.1116,-0.5462 0.3344,-0.7736 0.2187,-0.231 0.4622,-0.3446 0.7305,-0.3446 0.1361,0 0.2518,0.0366 0.3506,0.1063 0.095,0.0734 0.1446,0.1613 0.1446,0.2714 0,0.1136 -0.1857,0.2345 -0.5573,0.3629 -0.3713,0.1283 -0.5568,0.2934 -0.5568,0.495 0,0.121 0.0494,0.2236 0.1525,0.3044 0.099,0.0842 0.2311,0.1281 0.3921,0.1355 0.227,0 0.4788,-0.0696 0.7634,-0.2053 0.2807,-0.1355 0.5778,-0.3299 0.8956,-0.5902 0.6602,-0.528 1.1967,-1.1293 1.6053,-1.7966 0.4127,-0.6709 0.6189,-1.2686 0.6189,-1.7891 0,-0.2531 -0.029,-0.4914 -0.0824,-0.7151 -0.0578,-0.2272 -0.1444,-0.4289 -0.256,-0.6086 -0.718,0.8177 -1.2792,1.4264 -1.688,1.8223 -0.4083,0.396 -0.6641,0.5975 -0.7674,0.5975 -0.0332,0 -0.0577,-0.0109 -0.0743,-0.0292 -0.0166,-0.0184 -0.0247,-0.0514 -0.0247,-0.1027 0,-0.0917 0.2641,-0.3924 0.7923,-0.9019 0.5282,-0.506 0.9738,-0.9899 1.3371,-1.4483 0.1528,-0.1942 0.2765,-0.4765 0.3632,-0.8505 0.0907,-0.3703 0.2682,-0.5573 0.5323,-0.5573 0.1073,0 0.194,0.0366 0.26,0.1136 0.0701,0.0734 0.1031,0.1687 0.1031,0.2823 0,0.187 -0.0618,0.3703 -0.1815,0.5499 -0.1197,0.1797 -0.1816,0.275 -0.1816,0.2897 0,0 0.1484,0.2346 0.4417,0.7077 0.2928,0.473 0.4413,0.9606 0.4413,1.4628 0,0.7223 -0.2681,1.4153 -0.8047,2.0826 -0.5365,0.6673 -1.2751,1.2208 -2.2201,1.6645 z m 9.3431,-7.1092 h -0.2188 c -0.2517,0 -0.4291,-0.0147 -0.5322,-0.0439 -0.1031,-0.0257 -0.1568,-0.0697 -0.1568,-0.1284 0,-0.0843 0.0784,-0.143 0.2352,-0.1759 0.1569,-0.033 0.5075,-0.0477 1.0483,-0.0477 l 2.4513,-2.4162 c 0.1608,-0.1723 0.3052,-0.2786 0.4372,-0.319 0.128,-0.0402 0.3385,-0.0587 0.6275,-0.0587 0.1112,0 0.2062,0.0185 0.2845,0.0551 0.0744,0.0331 0.1155,0.0733 0.1155,0.1172 0,0.0587 -0.0988,0.1944 -0.2929,0.4071 l -0.0328,0.033 -2.0347,2.1815 h 0.3508 c 0.2682,0 0.4582,0.0147 0.5696,0.044 0.1114,0.0256 0.1691,0.0734 0.1691,0.1392 0,0.077 -0.0948,0.1321 -0.2848,0.1652 -0.1898,0.0328 -0.5902,0.0475 -1.2008,0.0475 l -4.585,4.8434 c -0.4166,0.4363 -0.7097,0.7919 -0.879,1.0669 -0.1689,0.2749 -0.2556,0.528 -0.2556,0.759 0,0.0989 0.0452,0.1906 0.1402,0.2785 0.0909,0.0844 0.2021,0.1284 0.3301,0.1284 0.4539,0 0.9944,-0.1797 1.6259,-0.5426 0.6356,-0.3593 1.4156,-0.9423 2.3399,-1.7453 0.3717,-0.3225 0.7512,-0.6745 1.1391,-1.0633 0.3838,-0.385 0.6066,-0.5792 0.6645,-0.5792 0.0452,0 0.0865,0.011 0.1154,0.0331 0.0248,0.0219 0.0414,0.0549 0.0414,0.0953 0,0.1209 -0.2064,0.3923 -0.6232,0.8102 -0.4169,0.4216 -0.9534,0.8983 -1.6136,1.4373 -0.8005,0.6635 -1.4982,1.1476 -2.1005,1.4518 -0.5985,0.3042 -1.1474,0.4582 -1.6385,0.4582 -0.3796,0 -0.6643,-0.0989 -0.8624,-0.2968 -0.1981,-0.1944 -0.2971,-0.4767 -0.2971,-0.8434 0,-0.4069 0.165,-0.8725 0.4911,-1.3932 0.3261,-0.5242 0.8873,-1.2025 1.6879,-2.0421 z"
       style="fill:#e30016;fill-rule:evenodd;stroke:#e30016;stroke-width:0.2999;stroke-linecap:butt;stroke-linejoin:miter;stroke-dasharray:none"
       id="path884" />
    <path
       d="m 381.6751,486.0133 c 0.2971,0.2384 0.6315,0.4143 1.0027,0.5354 0.3715,0.1172 0.7925,0.1759 1.2588,0.1759 0.3137,0 0.6232,-0.0292 0.9243,-0.0844 0.3012,-0.0586 0.6107,-0.1502 0.9246,-0.2712 -0.5324,-0.264 -0.9989,-0.4546 -1.4033,-0.5756 -0.4003,-0.1173 -0.7715,-0.176 -1.1099,-0.176 -0.2684,0 -0.5283,0.033 -0.7883,0.0953 -0.256,0.066 -0.5284,0.1649 -0.8089,0.3006 z m 7.7874,-4.3372 c 0.9325,-0.9021 1.6793,-1.7527 2.2447,-2.5519 0.5655,-0.7957 0.8462,-1.3969 0.8462,-1.7965 0,-0.1357 -0.0415,-0.253 -0.1282,-0.3446 -0.0824,-0.0917 -0.1813,-0.1394 -0.2928,-0.1394 -0.5406,0 -1.135,0.4767 -1.783,1.4299 -0.6479,0.9497 -0.9736,1.8663 -0.9736,2.7461 0,0.11 0.004,0.2201 0.0163,0.3301 0.0125,0.1098 0.0372,0.2198 0.0704,0.3263 z m 1.5184,1.3967 c 1.7086,-1.6388 3.0828,-3.252 4.1186,-4.8396 1.0359,-1.5837 1.5516,-2.8119 1.5516,-3.6772 0,-0.4658 -0.1772,-0.847 -0.5323,-1.1403 -0.3548,-0.2933 -0.8172,-0.4399 -1.3906,-0.4399 -0.8544,0 -1.8364,0.3665 -2.9547,1.0999 -1.1146,0.7332 -2.3276,1.8111 -3.6317,3.23 -0.9574,1.0523 -1.729,2.0716 -2.3152,3.065 -0.5818,0.99 -0.8749,1.7453 -0.8749,2.2586 0,0.308 0.0867,0.55 0.2643,0.7259 0.1772,0.176 0.429,0.264 0.751,0.264 0.3797,0 0.8294,-0.1357 1.3493,-0.4069 0.516,-0.2714 1.1101,-0.6856 1.7786,-1.2356 -0.0285,-0.1357 -0.0575,-0.2749 -0.0783,-0.4254 -0.0207,-0.1466 -0.029,-0.3006 -0.029,-0.4655 0,-1.0671 0.3674,-2.1009 1.0979,-3.0981 0.7344,-1.001 1.4567,-1.4996 2.1665,-1.4996 0.2476,0 0.4375,0.0732 0.5653,0.2163 0.128,0.143 0.1941,0.3484 0.1941,0.6233 0,0.429 -0.2929,1.0522 -0.875,1.8735 -0.5859,0.8175 -1.4113,1.7562 -2.4843,2.8084 0.124,0.2787 0.2931,0.5059 0.5078,0.682 0.2185,0.1759 0.4911,0.3042 0.821,0.3812 z m 0.2064,0.3962 c -0.5695,0.5169 -1.1635,0.9862 -1.7746,1.4114 -0.6147,0.429 -1.312,0.8396 -2.0922,1.2429 0.4499,0.2714 0.8954,0.473 1.3289,0.6087 0.4332,0.1357 0.8583,0.2053 1.2711,0.2053 0.594,0 1.2585,-0.1797 1.985,-0.5426 0.7304,-0.3593 1.5393,-0.9057 2.4223,-1.6353 0.5242,-0.4363 1.0317,-0.8983 1.5188,-1.3786 0.4867,-0.4839 0.7551,-0.7258 0.8045,-0.7258 0.0579,0 0.1033,0.0145 0.1323,0.0402 0.0328,0.0294 0.0494,0.066 0.0494,0.11 0,0.121 -0.2354,0.4071 -0.7057,0.8579 -0.4704,0.4511 -1.11,1.001 -1.9149,1.6536 -0.9284,0.737 -1.787,1.276 -2.575,1.6168 -0.7924,0.341 -1.5766,0.5098 -2.3563,0.5098 -0.5325,0 -1.0524,-0.0697 -1.5602,-0.2054 -0.5073,-0.1357 -1.011,-0.3446 -1.5103,-0.6307 -0.3631,0.1504 -0.7305,0.2605 -1.1018,0.3337 -0.3714,0.0696 -0.7471,0.1064 -1.1267,0.1064 -1.1512,0 -2.0634,-0.297 -2.7319,-0.8909 -0.6684,-0.594 -1.0028,-1.4043 -1.0028,-2.4272 0,-1.3603 0.4705,-2.8561 1.4072,-4.4876 0.9408,-1.628 2.2121,-3.1238 3.8133,-4.4841 1.3947,-1.1952 2.8969,-2.1558 4.5105,-2.878 1.6136,-0.7222 2.9961,-1.0853 4.1599,-1.0853 0.0289,0 0.1195,0.004 0.2681,0.0111 0.1527,0.007 0.2807,0.0109 0.3962,0.0109 -1.0565,0.1942 -2.0756,0.5022 -3.0539,0.924 -0.978,0.4216 -1.952,0.9716 -2.9177,1.6534 -1.1471,0.803 -2.2489,1.7527 -3.3136,2.8452 -1.0648,1.0963 -1.9974,2.2437 -2.8021,3.4391 -0.6232,0.9385 -1.069,1.7598 -1.3412,2.4638 -0.2767,0.7075 -0.4128,1.3822 -0.4128,2.0274 0,0.3263 0.0412,0.6234 0.1197,0.891 0.0825,0.264 0.1981,0.4839 0.3508,0.6526 0.4995,-0.2127 0.9617,-0.3739 1.3785,-0.4803 0.4207,-0.1063 0.8129,-0.1614 1.1718,-0.1614 0.4045,0 0.8541,0.0734 1.3578,0.2201 0.4993,0.1466 1.0316,0.3593 1.593,0.6378 0.6436,-0.3006 1.2832,-0.6671 1.9147,-1.0961 0.6356,-0.4289 1.2505,-0.9239 1.8447,-1.4812 -0.2641,-0.0514 -0.5199,-0.165 -0.7593,-0.3446 -0.2434,-0.1797 -0.4624,-0.4071 -0.6519,-0.6857 -0.7263,0.5647 -1.3578,0.9825 -1.8984,1.2503 -0.5408,0.2676 -1.0194,0.4033 -1.4402,0.4033 -0.5159,0 -0.9203,-0.154 -1.2215,-0.4658 -0.2971,-0.3115 -0.446,-0.7369 -0.446,-1.2757 0,-0.7738 0.3056,-1.6757 0.9205,-2.7095 0.6107,-1.0376 1.4609,-2.0826 2.5503,-3.142 1.1843,-1.1477 2.4017,-2.0533 3.6562,-2.7207 1.2507,-0.6635 2.3607,-0.9972 3.3303,-0.9972 0.6935,0 1.2506,0.1723 1.6796,0.5207 0.4251,0.3482 0.6396,0.7957 0.6396,1.3492 0,0.8874 -0.4745,2.0716 -1.4195,3.5565 -0.9491,1.4811 -2.2944,3.142 -4.0441,4.9824 0.8458,-0.0732 1.7086,-0.4069 2.5915,-1.0081 0.883,-0.6013 1.7541,-1.4556 2.6082,-2.5591 0.3838,-0.506 0.7346,-1.0487 1.0483,-1.6206 0.3176,-0.572 0.5157,-0.8579 0.6064,-0.8579 0.0332,0 0.0577,0.0109 0.0744,0.0366 0.0123,0.0257 0.0206,0.0696 0.0206,0.1357 0,0.2053 -0.2106,0.6562 -0.6313,1.3456 -0.4251,0.6928 -0.9533,1.3896 -1.5929,2.1009 -0.8624,0.9568 -1.7086,1.6681 -2.5382,2.1301 -0.8294,0.462 -1.6752,0.693 -2.538,0.693 z m 7.6016,1.4297 c -0.7636,0.7039 -1.4237,1.2173 -1.9808,1.5473 -0.5574,0.3299 -1.0441,0.4949 -1.4609,0.4949 -0.3137,0 -0.5655,-0.0806 -0.7555,-0.242 -0.1895,-0.1613 -0.2845,-0.374 -0.2845,-0.6378 0,-0.3007 0.095,-0.627 0.2888,-0.9718 0.194,-0.3482 0.5778,-0.8505 1.1473,-1.5105 l 1.7787,-2.0201 c 0.0245,-0.0293 0.0535,-0.0696 0.0948,-0.1174 0.2807,-0.3372 0.6479,-0.5059 1.102,-0.5059 0.1608,0 0.2929,0.0183 0.3919,0.0551 0.1031,0.033 0.1527,0.0843 0.1527,0.1502 0,0.0477 -0.0247,0.11 -0.066,0.1796 -0.0454,0.0735 -0.1321,0.1797 -0.2601,0.3228 l -3.194,3.6553 c -0.1361,0.1502 -0.2436,0.3116 -0.326,0.4839 -0.0784,0.1723 -0.1197,0.3263 -0.1197,0.462 0,0.077 0.033,0.1466 0.1031,0.2089 0.066,0.0587 0.1527,0.0917 0.2477,0.0917 0.3629,0 1.0068,-0.3702 1.9271,-1.1072 0.9243,-0.737 1.9356,-1.7085 3.0414,-2.911 0.1445,-0.1578 0.3261,-0.3631 0.5449,-0.6124 0.5529,-0.6232 1.1101,-0.935 1.667,-0.935 0.1116,0 0.2105,0.0221 0.2971,0.0625 0.0827,0.044 0.128,0.0915 0.128,0.1393 0,0.0366 -0.0453,0.11 -0.128,0.22 -0.0866,0.1136 -0.2351,0.2859 -0.4538,0.5243 l -2.5998,2.9514 c -0.2517,0.2969 -0.4541,0.5683 -0.6151,0.8176 -0.1608,0.2529 -0.2434,0.4253 -0.2434,0.5278 0,0.0699 0.0332,0.1357 0.1033,0.1944 0.0701,0.0551 0.1401,0.0844 0.2104,0.0844 0.2888,0 0.7263,-0.1833 1.3122,-0.5537 0.5862,-0.3703 1.2877,-0.9129 2.109,-1.6278 0.3796,-0.3301 0.7591,-0.6856 1.1429,-1.067 0.384,-0.385 0.6028,-0.5756 0.6605,-0.5756 0.0535,0 0.0948,0.0111 0.1197,0.033 0.0247,0.0183 0.0371,0.0513 0.0371,0.0953 0,0.1136 -0.2022,0.3741 -0.6107,0.7774 -0.4087,0.4068 -0.9576,0.8945 -1.6508,1.4665 -0.7843,0.6526 -1.4484,1.1256 -1.9974,1.4226 -0.5449,0.2969 -1.0277,0.4473 -1.4362,0.4473 -0.2929,0 -0.5157,-0.077 -0.6767,-0.2274 -0.161,-0.1502 -0.2434,-0.3594 -0.2434,-0.6305 0,-0.1652 0.037,-0.3375 0.1073,-0.5098 0.0743,-0.1759 0.2021,-0.3922 0.3879,-0.6526 z m 5.7029,1.7049 c 0.2891,0 0.6812,-0.1504 1.1764,-0.4472 0.495,-0.2971 1.011,-0.7004 1.5433,-1.2173 0.879,-0.8432 1.5518,-1.5471 2.0263,-2.1082 0.4703,-0.5647 0.7057,-0.9459 0.7057,-1.1439 0,-0.1576 -0.0537,-0.2787 -0.1693,-0.3593 -0.1112,-0.0844 -0.2806,-0.1247 -0.5074,-0.1247 -0.4045,0 -0.8711,0.143 -1.4074,0.4253 -0.5365,0.2824 -1.0978,0.6893 -1.6879,1.2173 -0.7263,0.66 -1.2876,1.2686 -1.6797,1.8295 -0.3961,0.5646 -0.594,1.0229 -0.594,1.3822 0,0.1761 0.0494,0.3153 0.1525,0.4071 0.0993,0.0915 0.2477,0.1392 0.4415,0.1392 z m 3.0705,-1.4922 c -0.6769,0.6234 -1.2875,1.0853 -1.8241,1.3896 -0.5407,0.3042 -1.0274,0.4582 -1.4649,0.4582 -0.4251,0 -0.7634,-0.121 -1.0028,-0.3592 -0.2434,-0.2421 -0.3633,-0.5684 -0.3633,-0.9826 0,-0.4877 0.194,-1.0267 0.5861,-1.6242 0.392,-0.5941 0.9202,-1.144 1.5887,-1.6536 0.6398,-0.4729 1.3165,-0.8396 2.0345,-1.0998 0.7139,-0.2605 1.4074,-0.3924 2.0798,-0.3924 0.3304,0 0.5902,0.0661 0.7844,0.1944 0.1939,0.1283 0.297,0.3042 0.3136,0.5278 0.2681,-0.3225 0.4662,-0.5169 0.5982,-0.5829 0.1321,-0.0623 0.3468,-0.0953 0.6356,-0.0953 0.1527,0 0.2724,0.0183 0.3631,0.0513 0.0865,0.0366 0.1321,0.0844 0.1321,0.1431 0,0.0403 -0.0247,0.1136 -0.0784,0.2127 -0.0537,0.1026 -0.1197,0.1906 -0.1983,0.2711 l -3.0453,3.5197 c -0.1857,0.2238 -0.3344,0.4254 -0.4375,0.6124 -0.1032,0.1871 -0.1567,0.3446 -0.1567,0.473 0,0.1062 0.033,0.1832 0.0948,0.231 0.066,0.0475 0.1733,0.0696 0.3303,0.0696 0.3135,0 0.7634,-0.187 1.3535,-0.5573 0.5858,-0.374 1.308,-0.9276 2.1625,-1.6645 0.3547,-0.308 0.7139,-0.649 1.0811,-1.0229 0.3674,-0.3703 0.5819,-0.5573 0.6479,-0.5573 0.0495,0 0.0825,0.0109 0.1074,0.033 0.0245,0.0219 0.0371,0.0549 0.0371,0.0953 0,0.1172 -0.2064,0.3812 -0.6232,0.8029 -0.4169,0.418 -0.9574,0.8983 -1.626,1.4446 -0.8294,0.6783 -1.5267,1.166 -2.0841,1.4628 -0.5612,0.2971 -1.0562,0.4473 -1.4813,0.4473 -0.3014,0 -0.5325,-0.0623 -0.6975,-0.1869 -0.1651,-0.1247 -0.2475,-0.3044 -0.2475,-0.5316 0,-0.2091 0.0328,-0.4071 0.1029,-0.5941 0.0704,-0.1832 0.1693,-0.3629 0.2973,-0.5352 z m 9.0334,-4.2162 c -1.1348,1.2795 -2.047,2.405 -2.732,3.3692 -0.6851,0.968 -1.0274,1.6059 -1.0274,1.9139 0,0.143 0.0453,0.2493 0.1403,0.3227 0.0908,0.0696 0.2352,0.1062 0.4292,0.1062 0.4083,0 0.9657,-0.2163 1.6713,-0.6488 0.7057,-0.4328 1.5269,-1.067 2.4596,-1.8955 0.3012,-0.2676 0.6106,-0.5647 0.9325,-0.891 0.322,-0.3301 0.516,-0.495 0.5778,-0.495 0.0494,0 0.0867,0.0111 0.1116,0.033 0.0245,0.0221 0.0371,0.0513 0.0371,0.0953 0,0.1136 -0.2064,0.3776 -0.6109,0.7957 -0.4085,0.4142 -0.945,0.8983 -1.6136,1.4482 -0.8873,0.7223 -1.6219,1.2318 -2.1954,1.5289 -0.5777,0.297 -1.1061,0.4472 -1.5889,0.4472 -0.4124,0 -0.7263,-0.0879 -0.9451,-0.264 -0.2185,-0.1759 -0.3258,-0.429 -0.3258,-0.7662 0,-0.6673 0.4334,-1.6023 1.2998,-2.8048 0.8667,-1.2025 2.2079,-2.7314 4.0197,-4.5867 1.5721,-1.5947 3.0372,-2.8744 4.395,-3.8386 1.3576,-0.9642 2.3563,-1.4445 2.9917,-1.4445 0.2187,0 0.388,0.0587 0.5077,0.1759 0.1195,0.121 0.1817,0.2823 0.1817,0.4912 0,0.8948 -0.8172,2.0094 -2.4474,3.3402 -1.6341,1.3309 -3.7222,2.5187 -6.2685,3.5675 z m 0.3261,-0.5281 c 2.249,-0.9532 4.1433,-2.0678 5.6823,-3.3438 1.5395,-1.2795 2.3071,-2.2475 2.3071,-2.9074 0,-0.1429 -0.0371,-0.2493 -0.1156,-0.3152 -0.0742,-0.0696 -0.2022,-0.1027 -0.3796,-0.1027 -0.5736,0 -1.5393,0.6013 -2.9011,1.8038 -1.3619,1.2026 -2.893,2.8267 -4.5931,4.8653 z m 5.2904,-0.2493 c -0.1444,0 -0.2641,-0.0404 -0.3548,-0.1247 -0.095,-0.0806 -0.1406,-0.1869 -0.1406,-0.3152 0,-0.1797 0.0786,-0.3374 0.2313,-0.4729 0.1527,-0.1357 0.33,-0.2054 0.5323,-0.2054 0.1444,0 0.2643,0.0366 0.355,0.1136 0.0948,0.0733 0.1404,0.1688 0.1404,0.286 0,0.1834 -0.0784,0.3519 -0.2354,0.4986 -0.1567,0.1466 -0.3342,0.22 -0.5282,0.22 z m -3.8915,5.0193 c -0.1859,0.2127 -0.3303,0.418 -0.4376,0.605 -0.103,0.1906 -0.1568,0.3446 -0.1568,0.4582 0,0.1063 0.0332,0.1833 0.095,0.231 0.0662,0.0476 0.1733,0.0697 0.3301,0.0697 0.289,0 0.7056,-0.1614 1.2464,-0.4839 0.5365,-0.3227 1.1885,-0.7994 1.9435,-1.43 0.4705,-0.385 0.9288,-0.803 1.3744,-1.2465 0.4456,-0.4437 0.6974,-0.6637 0.7553,-0.6637 0.0494,0 0.0865,0.0111 0.1154,0.0294 0.029,0.0219 0.0413,0.0549 0.0413,0.0989 0,0.0991 -0.165,0.319 -0.4952,0.6564 -0.3301,0.3337 -0.8172,0.7845 -1.4608,1.3528 -0.809,0.6856 -1.5229,1.2099 -2.1418,1.5656 -0.6232,0.3593 -1.1308,0.539 -1.5229,0.539 -0.355,0 -0.6273,-0.0808 -0.813,-0.2457 -0.1855,-0.165 -0.2764,-0.4069 -0.2764,-0.7223 0,-0.6563 0.8542,-1.9799 2.5628,-3.9633 l 0.0245,-0.0331 c 0.0661,-0.0696 0.1487,-0.1687 0.256,-0.2896 0.4169,-0.5022 0.8584,-0.7515 1.3165,-0.7515 0.161,0 0.2888,0.0145 0.3796,0.0439 0.095,0.0293 0.1403,0.0697 0.1403,0.1284 0,0.0513 -0.0249,0.1209 -0.0784,0.2162 -0.0536,0.0918 -0.1198,0.1797 -0.1982,0.2676 z m 8.0554,-5.6096 h -0.2187 c -0.2518,0 -0.4292,-0.0147 -0.5323,-0.044 -0.1031,-0.0257 -0.1567,-0.0696 -0.1567,-0.1283 0,-0.0844 0.0784,-0.1431 0.2351,-0.1759 0.157,-0.033 0.5076,-0.0478 1.0483,-0.0478 l 2.4513,-2.4162 c 0.1608,-0.1723 0.3052,-0.2785 0.4373,-0.3189 0.128,-0.0402 0.3384,-0.0587 0.6274,-0.0587 0.1112,0 0.2062,0.0185 0.2846,0.0551 0.0743,0.033 0.1155,0.0732 0.1155,0.1172 0,0.0587 -0.0989,0.1944 -0.2929,0.4071 l -0.0328,0.033 -2.0347,2.1814 h 0.3508 c 0.2682,0 0.4581,0.0148 0.5693,0.044 0.1116,0.0257 0.1693,0.0734 0.1693,0.1393 0,0.077 -0.0948,0.1321 -0.2847,0.1651 -0.1898,0.0329 -0.5902,0.0476 -1.2009,0.0476 l -4.5849,4.8434 c -0.4167,0.4363 -0.7097,0.7918 -0.879,1.0668 -0.169,0.275 -0.2556,0.528 -0.2556,0.759 0,0.0989 0.0451,0.1907 0.1401,0.2786 0.091,0.0844 0.2022,0.1283 0.3302,0.1283 0.4538,0 0.9944,-0.1796 1.6259,-0.5425 0.6356,-0.3594 1.4155,-0.9423 2.3399,-1.7454 0.3714,-0.3225 0.7512,-0.6744 1.139,-1.0632 0.3838,-0.385 0.6066,-0.5792 0.6645,-0.5792 0.0452,0 0.0865,0.0109 0.1155,0.033 0.0247,0.0219 0.0413,0.0549 0.0413,0.0953 0,0.121 -0.2064,0.3924 -0.6232,0.8102 -0.4168,0.4216 -0.9533,0.8983 -1.6138,1.4373 -0.8002,0.6636 -1.4979,1.1476 -2.1003,1.4519 -0.5985,0.3042 -1.1473,0.4582 -1.6385,0.4582 -0.3795,0 -0.6643,-0.0989 -0.8624,-0.2969 -0.198,-0.1944 -0.2971,-0.4767 -0.2971,-0.8434 0,-0.4069 0.1651,-0.8724 0.4912,-1.3931 0.326,-0.5243 0.8873,-1.2026 1.6879,-2.0422 z m 3.6688,8.2494 c -1.9642,0.6928 -3.5987,1.5179 -4.8984,2.4747 -1.3,0.957 -1.952,1.7453 -1.952,2.3685 0,0.2091 0.0618,0.3667 0.1857,0.4729 0.1278,0.1065 0.3178,0.1614 0.5736,0.1614 0.8253,0 2.4057,-1.3235 4.7499,-3.9743 0.5737,-0.6452 1.0193,-1.1476 1.3412,-1.5032 z m 1.7045,-0.4841 c -2.5297,2.7278 -4.2836,4.4547 -5.2576,5.1844 -0.974,0.7259 -1.8447,1.0888 -2.6121,1.0888 -0.3427,0 -0.6151,-0.088 -0.8132,-0.2639 -0.1981,-0.176 -0.2971,-0.4106 -0.2971,-0.7039 0,-0.7003 0.722,-1.5839 2.1625,-2.6472 1.4442,-1.0633 3.2354,-1.9359 5.3813,-2.6178 l 1.5103,-1.8442 c -0.7014,0.5426 -1.2626,0.9202 -1.6796,1.1329 -0.4209,0.209 -0.8006,0.3154 -1.1391,0.3154 -0.3052,0 -0.5405,-0.0844 -0.7097,-0.2531 -0.1693,-0.1685 -0.2559,-0.3995 -0.2559,-0.6928 0,-0.2861 0.1075,-0.6086 0.326,-0.9717 0.219,-0.3593 0.6151,-0.8542 1.1846,-1.4849 0.1856,-0.2089 0.4373,-0.4803 0.751,-0.8175 0.5406,-0.572 0.8088,-0.9276 0.8088,-1.0742 0,-0.0625 -0.0247,-0.1174 -0.0784,-0.1578 -0.0535,-0.044 -0.1197,-0.0659 -0.1981,-0.0659 -0.3797,0 -0.9161,0.3116 -1.6012,0.935 -0.6891,0.6195 -1.0729,0.9311 -1.1429,0.9311 -0.0249,0 -0.0498,-0.0109 -0.0661,-0.0292 -0.0206,-0.0221 -0.0332,-0.0478 -0.0332,-0.077 0,-0.077 0.0744,-0.198 0.2188,-0.3594 0.1446,-0.1613 0.3633,-0.3629 0.6519,-0.6086 0.5161,-0.451 0.97,-0.7773 1.3619,-0.9863 0.388,-0.2089 0.7429,-0.3115 1.0566,-0.3115 0.2888,0 0.5073,0.0696 0.652,0.2053 0.1444,0.1355 0.2187,0.3372 0.2187,0.6122 0,0.4767 -0.4292,1.1769 -1.2918,2.0935 l -0.0247,0.0221 c -0.6315,0.6635 -1.0771,1.1731 -1.3495,1.5215 -0.2681,0.3519 -0.4044,0.5939 -0.4044,0.7296 0,0.1245 0.0332,0.2127 0.095,0.2713 0.066,0.055 0.165,0.0842 0.3054,0.0842 0.3631,0 0.9409,-0.3225 1.7333,-0.9715 0.7923,-0.6489 1.7908,-1.6059 2.9918,-2.8707 0.2435,-0.2566 0.5159,-0.5684 0.8213,-0.9349 0.4373,-0.5245 0.879,-0.7847 1.3329,-0.7847 0.1527,0 0.2724,0.0183 0.3591,0.0551 0.0907,0.0366 0.1361,0.0806 0.1361,0.1393 0,0.0513 -0.0247,0.1245 -0.0744,0.2198 -0.0494,0.0955 -0.1031,0.1835 -0.1691,0.264 l -4.4859,5.2173 c 2.08,-0.7442 3.9494,-1.9578 5.6126,-3.6407 0.3052,-0.3153 0.491,-0.4693 0.5529,-0.4693 0.0495,0 0.0867,0.007 0.1114,0.0294 0.0247,0.0219 0.033,0.0549 0.033,0.0989 0,0.341 -0.6849,1.0303 -2.0591,2.0605 -1.3744,1.0302 -2.9177,1.8406 -4.6261,2.4271 z"
       style="fill:#e30016;fill-rule:evenodd;stroke:#e30016;stroke-width:0.2999;stroke-linecap:butt;stroke-linejoin:miter;stroke-dasharray:none"
       id="path886" />
    <path
       d="m 331.6384,476.9648 c 0.2105,0.1942 0.4211,0.3373 0.6232,0.429 0.2064,0.0915 0.4209,0.1393 0.6479,0.1393 0.1114,0 0.2228,-0.0368 0.3342,-0.1136 0.1072,-0.0735 0.161,-0.154 0.161,-0.2422 0,-0.1136 -0.0743,-0.2053 -0.2228,-0.2785 -0.1488,-0.0697 -0.3509,-0.1065 -0.5984,-0.1065 -0.1279,0 -0.2684,0.0147 -0.4252,0.0442 -0.1527,0.0292 -0.326,0.0696 -0.5199,0.1283 z m 8.9964,-5.21 c -1.3701,0.0881 -2.5999,0.5133 -3.6936,1.2795 -1.0935,0.7664 -1.6383,1.5179 -1.6383,2.2549 0,0.3006 0.1033,0.5425 0.3097,0.7296 0.2063,0.187 0.4745,0.2787 0.817,0.2787 0.9906,0 1.948,-0.4363 2.8681,-1.309 0.9244,-0.8762 1.3867,-1.8147 1.3867,-2.8267 0,-0.0477 -0.0125,-0.1504 -0.0372,-0.3006 -0.008,-0.0478 -0.0124,-0.0844 -0.0124,-0.1064 z m -11.0268,13.5693 c 1.758,-0.4327 3.26,-1.1623 4.5064,-2.1926 1.2422,-1.0302 1.8656,-1.9652 1.8656,-2.8048 0,-0.3372 -0.1076,-0.6012 -0.3261,-0.7881 -0.219,-0.1908 -0.5161,-0.2861 -0.8956,-0.2861 -0.5078,0 -1.0897,0.1906 -1.754,0.5756 -0.6602,0.3814 -1.2958,0.9019 -1.9064,1.5619 -0.5078,0.5463 -0.8997,1.1 -1.1764,1.6609 -0.2722,0.5609 -0.4083,1.0925 -0.4083,1.5949 0,0.121 0.008,0.2384 0.0245,0.3482 0.0166,0.1138 0.0373,0.2201 0.0703,0.3301 z m -0.3137,0.4399 c -0.2971,0.0587 -0.5529,0.0953 -0.7591,0.1174 -0.2106,0.0219 -0.4045,0.033 -0.5821,0.033 -1.1514,0 -2.0632,-0.2934 -2.732,-0.8762 -0.6684,-0.583 -1.0025,-1.3751 -1.0025,-2.3796 0,-0.5647 0.1278,-1.1292 0.3795,-1.6864 0.2558,-0.5573 0.6313,-1.1037 1.1308,-1.6353 -0.5736,-0.3263 -1.0194,-0.7736 -1.337,-1.3347 -0.3178,-0.5644 -0.4788,-1.1878 -0.4788,-1.877 0,-0.9423 0.3219,-1.8625 0.9657,-2.7608 0.6477,-0.8946 1.5227,-1.6389 2.6247,-2.2328 0.4705,-0.2493 0.9201,-0.4546 1.3495,-0.616 0.433,-0.1614 0.7346,-0.2419 0.9118,-0.2419 0.0662,0.007 0.1033,0.0109 0.1116,0.0145 0.008,0.004 0.0123,0.0111 0.0123,0.0257 0,0.0881 -0.2065,0.231 -0.6189,0.4327 -0.4087,0.2016 -0.7306,0.3703 -0.9657,0.5169 -1.0566,0.649 -1.9069,1.4739 -2.5546,2.4676 -0.6436,0.9972 -0.9657,1.9761 -0.9657,2.944 0,0.55 0.1072,1.0339 0.3261,1.4445 0.2188,0.4107 0.5282,0.7223 0.9327,0.9276 0.7427,-0.5573 1.4896,-1.0303 2.2449,-1.4152 0.751,-0.3886 1.5311,-0.7002 2.3358,-0.935 -0.1116,-0.1942 -0.194,-0.3995 -0.2517,-0.6122 -0.058,-0.2163 -0.0867,-0.4437 -0.0867,-0.6892 0,-0.5281 0.165,-1.0889 0.4911,-1.6757 0.3259,-0.5865 0.7881,-1.1474 1.3823,-1.6864 0.8171,-0.7296 1.7538,-1.3163 2.8145,-1.7563 1.0566,-0.4399 2.0468,-0.6599 2.9673,-0.6599 0.7881,0 1.4566,0.1504 2.0014,0.451 0.5406,0.3007 0.9163,0.7332 1.1184,1.2905 0.9159,0.0661 1.6341,0.3007 2.1542,0.704 0.5201,0.4033 0.7798,0.9313 0.7798,1.5839 0,0.5205 -0.1651,1.0376 -0.491,1.5509 -0.3261,0.5132 -0.7842,0.9752 -1.3825,1.3896 -0.388,0.2712 -0.7552,0.4912 -1.1058,0.6562 -0.3508,0.1649 -0.6026,0.2457 -0.7553,0.2457 h -0.1199 c -0.0162,0 -0.0287,-0.004 -0.037,-0.0111 -0.008,-0.007 -0.0124,-0.0219 -0.0124,-0.0514 0,-0.0879 0.1527,-0.1979 0.4539,-0.3336 0.3014,-0.1355 0.5529,-0.2676 0.7552,-0.396 0.7429,-0.4656 1.3042,-0.9606 1.6797,-1.4775 0.3797,-0.5207 0.5695,-1.0523 0.5695,-1.5949 0,-0.5535 -0.2147,-0.9898 -0.6479,-1.3161 -0.4292,-0.3263 -1.0275,-0.5024 -1.7953,-0.5317 v 0.4069 c 0,1.111 -0.499,2.1303 -1.4979,3.0579 -0.9985,0.9276 -2.0882,1.3896 -3.2643,1.3896 -0.4662,0 -0.8541,-0.1505 -1.1557,-0.4511 -0.3011,-0.3006 -0.4538,-0.6892 -0.4538,-1.1695 0,-0.9532 0.5488,-1.8002 1.6385,-2.5408 1.0935,-0.7407 2.3646,-1.111 3.8171,-1.111 h 0.3715 c -0.1033,-0.4033 -0.3506,-0.7186 -0.7346,-0.9532 -0.3879,-0.231 -0.8707,-0.3484 -1.4526,-0.3484 -0.6852,0 -1.4566,0.2091 -2.3192,0.6233 -0.8626,0.4143 -1.7376,1.0046 -2.6249,1.7708 -0.7425,0.6455 -1.3203,1.2798 -1.7331,1.9029 -0.4168,0.6234 -0.6231,1.155 -0.6231,1.5987 0,0.0879 0.008,0.1797 0.0289,0.275 0.0207,0.0953 0.0496,0.1979 0.0907,0.3042 0.2354,-0.033 0.4582,-0.0623 0.6769,-0.0844 0.2188,-0.0219 0.4251,-0.033 0.619,-0.033 0.4417,0 0.7801,0.066 1.0153,0.1982 0.2311,0.1319 0.3506,0.3298 0.3506,0.5865 0,0.1723 -0.0991,0.3263 -0.297,0.462 -0.1982,0.1357 -0.4293,0.2053 -0.6975,0.2053 -0.3135,0 -0.6232,-0.0587 -0.9244,-0.1761 -0.3011,-0.1209 -0.5982,-0.2968 -0.8873,-0.5316 -0.4992,0.1687 -1.0523,0.4473 -1.663,0.8323 -0.6066,0.3814 -1.2381,0.8543 -1.89,1.4116 0.1855,0.0219 0.3878,0.0366 0.6106,0.0476 0.2188,0.0111 0.45,0.0183 0.6933,0.0183 0.1197,0 0.2517,-0.004 0.388,-0.011 0.1362,-0.007 0.2145,-0.0109 0.2271,-0.0109 0.0907,0 0.1608,0.0183 0.2185,0.0513 0.0578,0.0366 0.0867,0.0806 0.0867,0.1319 0,0.0478 -0.1073,0.0918 -0.3218,0.1322 -0.2145,0.0402 -0.4912,0.0585 -0.8296,0.0585 -0.2477,0 -0.4911,-0.007 -0.7222,-0.0257 -0.2352,-0.0183 -0.4703,-0.044 -0.7014,-0.0806 -0.6933,0.6379 -1.2217,1.2648 -1.5806,1.8808 -0.3591,0.616 -0.5365,1.2063 -0.5365,1.771 0,0.6892 0.2515,1.2282 0.751,1.6168 0.4994,0.3923 1.1927,0.5865 2.08,0.5865 0.1898,0 0.3962,-0.0109 0.6066,-0.0328 0.2147,-0.0221 0.4375,-0.0551 0.6726,-0.1065 -0.066,-0.1796 -0.1114,-0.3665 -0.1444,-0.5646 -0.033,-0.198 -0.0494,-0.4105 -0.0494,-0.6379 0,-1.4262 0.5653,-2.6874 1.6918,-3.7873 1.1307,-1.1 2.4059,-1.65 3.8338,-1.65 0.5818,0 1.04,0.1357 1.3825,0.4071 0.3426,0.275 0.516,0.6417 0.516,1.1072 0,0.9533 -0.6398,1.9652 -1.9149,3.0394 -1.2793,1.078 -2.8394,1.8516 -4.6881,2.3319 0.1857,0.4252 0.4745,0.7443 0.8668,0.9568 0.3919,0.2164 0.8748,0.3227 1.4567,0.3227 0.4992,0 1.0153,-0.0917 1.5475,-0.2786 0.1527,-0.0513 0.2475,-0.077 0.2888,-0.077 0.0414,0 0.0784,0.011 0.1157,0.0293 0.037,0.0183 0.0535,0.0366 0.0535,0.0587 0,0.121 -0.1979,0.2529 -0.5983,0.3959 -0.4002,0.1431 -0.8377,0.2163 -1.3125,0.2163 -0.6766,0 -1.2668,-0.1319 -1.7703,-0.3959 -0.5033,-0.2676 -0.875,-0.6453 -1.1184,-1.1403 z m 9.4671,-1.6536 c -0.7016,0.6783 -1.2464,1.1329 -1.6302,1.3677 -0.3796,0.231 -0.7429,0.3482 -1.0812,0.3482 -0.2023,0 -0.3674,-0.0585 -0.4952,-0.1759 -0.1278,-0.121 -0.194,-0.2714 -0.194,-0.4584 0,-0.1355 0.0496,-0.2529 0.1446,-0.352 0.0989,-0.1026 0.2062,-0.1502 0.3257,-0.1502 0.161,0 0.289,0.1062 0.3757,0.3263 0.0909,0.2163 0.1938,0.3263 0.3137,0.3263 0.1608,0 0.4456,-0.1576 0.8458,-0.4729 0.4045,-0.3154 0.8172,-0.7113 1.2341,-1.1916 l 0.4581,-0.5134 c 1.2999,-1.4665 1.9478,-2.3354 1.9478,-2.6068 0,-0.1245 -0.0247,-0.2125 -0.0784,-0.2712 -0.0537,-0.0551 -0.1363,-0.0843 -0.2475,-0.0843 -0.3634,0 -0.879,0.3263 -1.5435,0.9753 -0.6645,0.6526 -1.0483,0.9789 -1.1512,0.9789 -0.025,0 -0.0499,-0.0111 -0.0705,-0.033 -0.0162,-0.0221 -0.0288,-0.0478 -0.0288,-0.077 0,-0.0697 0.0703,-0.1871 0.2105,-0.352 0.1444,-0.165 0.3714,-0.3924 0.6849,-0.6783 0.4748,-0.4584 0.8997,-0.7956 1.2713,-1.0157 0.3672,-0.2163 0.7014,-0.3263 1.0026,-0.3263 0.2888,0 0.5118,0.0808 0.6645,0.2421 0.1527,0.1612 0.2311,0.396 0.2311,0.704 0,0.0658 -0.008,0.1355 -0.0247,0.2163 -0.0166,0.077 -0.0413,0.1685 -0.0703,0.2785 0.5448,-0.4363 1.0649,-0.7845 1.5557,-1.0376 0.4954,-0.2529 0.879,-0.3812 1.1639,-0.3812 0.1775,0 0.3261,0.0587 0.4539,0.1723 0.124,0.1136 0.1857,0.2529 0.1857,0.418 0,0.1357 -0.0413,0.2493 -0.1278,0.3337 -0.0826,0.0879 -0.1899,0.1283 -0.3177,0.1283 -0.1487,0 -0.2848,-0.0843 -0.4128,-0.2531 -0.128,-0.1649 -0.223,-0.2493 -0.2765,-0.2493 -0.2436,0 -0.6025,0.1576 -1.077,0.4767 -0.4746,0.319 -0.9615,0.7368 -1.4526,1.2613 -0.7346,0.7809 -1.2877,1.4224 -1.663,1.9248 -0.3757,0.5059 -0.5615,0.8579 -0.5615,1.0595 0,0.143 0.0454,0.2457 0.1404,0.3044 0.0907,0.0622 0.2434,0.0917 0.4539,0.0917 0.3218,0 0.7552,-0.1614 1.3041,-0.4841 0.5489,-0.3225 1.1925,-0.7956 1.9354,-1.4262 0.4499,-0.385 0.8997,-0.803 1.3412,-1.2465 0.4456,-0.4437 0.6975,-0.6637 0.7634,-0.6637 0.0455,0 0.0826,0.0111 0.1073,0.033 0.0249,0.0221 0.0371,0.0513 0.0371,0.0953 0,0.0991 -0.1649,0.319 -0.491,0.6564 -0.3259,0.3337 -0.8129,0.7845 -1.4566,1.3492 -0.8543,0.7296 -1.5846,1.2686 -2.1997,1.6096 -0.6107,0.3446 -1.1431,0.5169 -1.5972,0.5169 -0.3464,0 -0.619,-0.0844 -0.8252,-0.2531 -0.2063,-0.1685 -0.3094,-0.3995 -0.3094,-0.6928 0,-0.0917 0.0164,-0.1944 0.0494,-0.3044 0.029,-0.11 0.0907,-0.2602 0.1817,-0.4437 z"
       style="fill:#e30016;fill-rule:evenodd;stroke:#e30016;stroke-width:0.2999;stroke-linecap:butt;stroke-linejoin:miter;stroke-dasharray:none"
       id="path888" />
    <path
       d="m 339.8715,489.3607 c -0.0497,0.0587 -0.1074,0.1283 -0.1817,0.2164 -0.4168,0.4949 -0.9201,0.7406 -1.5103,0.7406 -0.095,0 -0.1817,-0.0183 -0.2477,-0.0551 -0.0701,-0.0329 -0.1033,-0.0732 -0.1033,-0.1172 0,-0.1431 0.256,-0.4986 0.7636,-1.0633 0.1527,-0.1796 0.2726,-0.3189 0.359,-0.418 l 10.3747,-11.945 c 0.0413,-0.0513 0.0907,-0.1136 0.1569,-0.1832 0.425,-0.5098 0.9368,-0.7627 1.5227,-0.7627 0.099,0 0.1817,0.0183 0.2475,0.0549 0.0705,0.0331 0.1033,0.077 0.1033,0.1284 0,0.0696 -0.0784,0.2127 -0.2394,0.4289 -0.1608,0.2163 -0.4579,0.5609 -0.8831,1.0412 l -4.1349,4.6381 c 1.2132,-0.9129 2.1086,-1.5326 2.6824,-1.8516 0.5735,-0.3189 1.0398,-0.4765 1.4031,-0.4765 0.2639,0 0.4786,0.0696 0.6356,0.2089 0.1567,0.1393 0.2351,0.3263 0.2351,0.5647 0,0.4289 -0.4579,1.1842 -1.3784,2.2658 l -0.0371,0.0403 -0.2641,0.3116 c -0.8462,0.9972 -1.2711,1.5949 -1.2711,1.7965 0,0.1504 0.033,0.2566 0.1031,0.3227 0.0703,0.0623 0.1734,0.0953 0.3218,0.0953 0.2973,0 0.7429,-0.187 1.3414,-0.5573 0.5942,-0.374 1.2958,-0.9057 2.1045,-1.6023 0.3717,-0.3225 0.7472,-0.6782 1.135,-1.0632 0.3879,-0.385 0.6107,-0.5792 0.6646,-0.5792 0.0494,0 0.0824,0.007 0.099,0.0257 0.0164,0.0183 0.0205,0.0513 0.0205,0.1026 0,0.121 -0.1939,0.3812 -0.586,0.7772 -0.388,0.3997 -0.9369,0.8874 -1.6383,1.4665 -0.7633,0.6455 -1.4402,1.1258 -2.0223,1.4409 -0.5857,0.3154 -1.0852,0.473 -1.4937,0.473 -0.3303,0 -0.5942,-0.0842 -0.7923,-0.2567 -0.1981,-0.1723 -0.2971,-0.4033 -0.2971,-0.6892 0,-0.264 0.1154,-0.583 0.3423,-0.9568 0.2313,-0.3705 0.6811,-0.9423 1.3497,-1.7087 0.3712,-0.4216 0.6643,-0.7845 0.883,-1.0888 0.2187,-0.3044 0.3259,-0.5023 0.3259,-0.5976 0,-0.0697 -0.0288,-0.1284 -0.0865,-0.1761 -0.0537,-0.0476 -0.128,-0.0697 -0.2147,-0.0697 -0.4044,0 -1.2338,0.473 -2.4968,1.4191 -1.2626,0.9458 -2.4388,2.0567 -3.5365,3.34 z m 18.0256,-9.2503 c -0.3344,0 -0.7263,0.1393 -1.1885,0.4143 -0.458,0.2751 -0.9985,0.7003 -1.6179,1.2724 -0.7345,0.6673 -1.2958,1.2574 -1.6877,1.7745 -0.3921,0.5169 -0.5859,0.9238 -0.5859,1.2244 0,0.2092 0.066,0.3667 0.1938,0.473 0.128,0.1064 0.3178,0.1613 0.5695,0.1613 0.3551,0 0.809,-0.1649 1.3661,-0.4986 0.553,-0.3336 1.1142,-0.7845 1.6795,-1.3491 0.582,-0.5683 1.04,-1.111 1.3784,-1.6353 0.3384,-0.5205 0.5076,-0.9312 0.5076,-1.2245 0,-0.2017 -0.0537,-0.3519 -0.1649,-0.4546 -0.1074,-0.1064 -0.2601,-0.1578 -0.45,-0.1578 z m -0.1692,2.9149 c -0.8502,0.9275 -1.6342,1.6279 -2.3646,2.097 -0.7305,0.4694 -1.395,0.704 -2.0016,0.704 -0.4209,0 -0.751,-0.1246 -0.9987,-0.3703 -0.2434,-0.2455 -0.3672,-0.5865 -0.3672,-1.0155 0,-0.5169 0.19,-1.0669 0.5736,-1.6498 0.3838,-0.583 0.9203,-1.1403 1.6136,-1.6683 0.5819,-0.4509 1.1844,-0.8029 1.8076,-1.0523 0.6272,-0.2529 1.1925,-0.3777 1.7003,-0.3777 0.3712,0 0.6683,0.0955 0.8873,0.2861 0.2228,0.1871 0.334,0.4437 0.334,0.7662 0,0.4511 -0.2311,1.001 -0.6891,1.6463 -0.1073,0.143 -0.1567,0.2236 -0.1567,0.2457 0,0.0842 0.0577,0.1576 0.1733,0.2198 0.1153,0.0625 0.2558,0.0918 0.4169,0.0918 0.4828,0 0.9944,-0.2274 1.5269,-0.6821 0.528,-0.4546 0.8251,-0.6818 0.879,-0.6818 0.0245,0 0.0453,0.007 0.0577,0.022 0.0124,0.011 0.0166,0.0329 0.0166,0.0623 0,0.2384 -0.2973,0.5683 -0.8873,0.9937 -0.5944,0.4289 -1.1474,0.6414 -1.6634,0.6414 -0.1772,0 -0.334,-0.0219 -0.4745,-0.0696 -0.1362,-0.0476 -0.264,-0.1172 -0.3837,-0.2089 z m 5.8393,-2.8452 c 0.1941,0 0.4746,-0.044 0.8337,-0.1246 0.3631,-0.0843 0.6149,-0.1247 0.751,-0.1247 0.1197,0 0.1982,0.0111 0.2351,0.033 0.0373,0.0221 0.0539,0.0623 0.0539,0.1283 0,0.0844 -0.2767,0.3886 -0.8337,0.9129 -0.3714,0.3448 -0.6766,0.6343 -0.916,0.8691 -0.7842,0.7662 -1.3908,1.4297 -1.8285,1.987 -0.433,0.5573 -0.6518,0.9606 -0.6518,1.2027 0,0.0769 0.0371,0.1429 0.1072,0.198 0.0743,0.0549 0.1693,0.0806 0.293,0.0806 0.2559,0 0.6603,-0.1649 1.2132,-0.4986 0.553,-0.3337 1.1804,-0.7957 1.882,-1.3896 0.4415,-0.3814 0.8913,-0.7918 1.3452,-1.2393 0.4582,-0.4473 0.7182,-0.6709 0.78,-0.6709 0.0413,0 0.0701,0.007 0.0907,0.0256 0.0209,0.0184 0.0332,0.0514 0.0332,0.1027 0,0.1136 -0.2023,0.3776 -0.6068,0.7883 -0.4044,0.4107 -0.9407,0.8946 -1.6178,1.4556 -0.7591,0.6305 -1.4277,1.1035 -2.0096,1.4262 -0.5776,0.3227 -1.0604,0.4839 -1.4359,0.4839 -0.3634,0 -0.6356,-0.0806 -0.8173,-0.2455 -0.1816,-0.165 -0.2724,-0.4145 -0.2724,-0.7408 0,-0.3959 0.1527,-0.8358 0.4582,-1.3235 0.3094,-0.4839 0.7303,-0.9606 1.2711,-1.4262 0.3301,-0.2787 0.7015,-0.5609 1.1184,-0.8432 0.4123,-0.2823 0.623,-0.4473 0.623,-0.4986 0,-0.0513 -0.0454,-0.0881 -0.1319,-0.1138 -0.0909,-0.0256 -0.2272,-0.0366 -0.4128,-0.0366 -0.5241,0 -1.04,0.2676 -1.5475,0.7992 -0.5078,0.5354 -0.8172,0.7993 -0.9327,0.7993 -0.0373,0 -0.066,-0.011 -0.0784,-0.033 -0.0123,-0.0183 -0.0166,-0.0585 -0.0166,-0.1172 0,-0.0991 0.2228,-0.352 0.6645,-0.7627 0.4416,-0.407 0.7593,-0.7626 0.9451,-1.0632 0.07,-0.1136 0.165,-0.3116 0.2762,-0.5904 0.2643,-0.6452 0.545,-0.9679 0.8339,-0.9679 0.1195,0 0.2227,0.0477 0.3011,0.1395 0.0825,0.0953 0.124,0.2162 0.124,0.3665 0,0.2164 -0.0867,0.407 -0.2601,0.5793 -0.1733,0.1723 -0.26,0.2676 -0.26,0.2786 0,0.0513 0.0289,0.0881 0.095,0.1138 0.066,0.0257 0.165,0.0402 0.3011,0.0402 z m 6.1573,-1.7855 h -0.2188 c -0.2517,0 -0.4291,-0.0147 -0.5324,-0.044 -0.1029,-0.0257 -0.1568,-0.0696 -0.1568,-0.1283 0,-0.0844 0.0784,-0.1431 0.2352,-0.1759 0.1571,-0.033 0.5077,-0.0478 1.0483,-0.0478 l 2.4515,-2.4162 c 0.1608,-0.1723 0.3052,-0.2785 0.4372,-0.3189 0.128,-0.0402 0.3385,-0.0587 0.6273,-0.0587 0.1114,0 0.2064,0.0185 0.2848,0.0551 0.0743,0.033 0.1154,0.0732 0.1154,0.1172 0,0.0587 -0.0988,0.1944 -0.2929,0.4071 l -0.033,0.033 -2.0344,2.1814 h 0.3506 c 0.2683,0 0.4583,0.0148 0.5695,0.044 0.1116,0.0257 0.1693,0.0734 0.1693,0.1393 0,0.077 -0.095,0.1321 -0.2848,0.1651 -0.1898,0.0329 -0.5902,0.0476 -1.2008,0.0476 l -4.585,4.8434 c -0.4168,0.4363 -0.7097,0.7918 -0.879,1.0668 -0.1691,0.275 -0.2558,0.528 -0.2558,0.759 0,0.0989 0.0454,0.1907 0.1404,0.2786 0.0909,0.0844 0.2021,0.1283 0.3301,0.1283 0.4539,0 0.9945,-0.1796 1.6259,-0.5425 0.6356,-0.3594 1.4154,-0.9423 2.3399,-1.7454 0.3715,-0.3225 0.7512,-0.6744 1.1391,-1.0632 0.3838,-0.385 0.6066,-0.5792 0.6643,-0.5792 0.0454,0 0.0867,0.0109 0.1156,0.033 0.0248,0.0219 0.0412,0.0549 0.0412,0.0953 0,0.121 -0.2062,0.3924 -0.623,0.8102 -0.417,0.4216 -0.9534,0.8983 -1.6138,1.4373 -0.8004,0.6636 -1.498,1.1476 -2.1003,1.4519 -0.5985,0.3042 -1.1474,0.4582 -1.6385,0.4582 -0.3796,0 -0.6645,-0.0989 -0.8624,-0.2969 -0.1983,-0.1944 -0.2971,-0.4767 -0.2971,-0.8434 0,-0.4069 0.165,-0.8724 0.4911,-1.3931 0.3259,-0.5243 0.8871,-1.2026 1.6877,-2.0422 z"
       style="fill:#e30016;fill-rule:evenodd;stroke:#e30016;stroke-width:0.2999;stroke-linecap:butt;stroke-linejoin:miter;stroke-dasharray:none"
       id="path890" />
    <g
       id="Layer1002">
      <path
         d="m 424.4297,407.8881 v -13.1633 c 0,-2.0234 -0.2247,-3.3333 -0.6737,-3.9509 -0.4497,-0.6071 -1.2461,-0.9159 -2.4104,-0.9159 -2.0116,0 -3.6358,0.8201 -4.8714,2.4603 -1.2356,1.6506 -1.859,3.8336 -1.859,6.5493 v 4.7819 c 0,2.7581 0.6129,4.952 1.8384,6.5817 1.2258,1.6187 2.8597,2.4279 4.892,2.4279 1.1437,0 1.9404,-0.3193 2.3999,-0.9692 0.4595,-0.639 0.6842,-1.9062 0.6842,-3.8018 z m -21.6917,19.8085 3.4112,-1.9384 v -35.0587 h -3.9828 c 0,-3.1534 2.917,-2.0148 6.4438,-2.2153 2.0736,-0.1277 4.0751,-0.2769 6.005,-0.4684 v 4.7709 c 0.9194,-1.5973 2.0327,-2.7904 3.3395,-3.5891 1.3076,-0.7882 2.8088,-1.1818 4.5038,-1.1818 3.2477,0 5.9443,1.2566 8.0782,3.7592 2.1347,2.5027 3.197,5.6869 3.197,9.5314 0,3.7169 -1.0825,6.8481 -3.2476,9.3718 -2.1651,2.5241 -4.8411,3.7912 -8.0276,3.7912 -1.7153,0 -3.2269,-0.3937 -4.524,-1.1713 -1.2971,-0.7772 -2.3999,-1.97 -3.3193,-3.5677 v 16.0278 h 4.4018 v 1.9384 z m 32.6444,-0.9606 h 3.5642 v -37.7218 h -3.9217 v -1.9061 c 2.1955,-0.0639 4.3302,-0.1597 6.4034,-0.2983 2.0732,-0.1281 4.0646,-0.2769 5.9843,-0.4475 v 40.3737 h 3.8606 v 1.9061 h -15.8908 z m 44.8483,-23.7703 v 23.706 h 3.9217 v 1.9066 c -1.9202,0 -3.8812,0.0424 -5.8929,0.1277 -2.0116,0.0849 -4.1565,0.213 -6.4337,0.3726 v -6.3044 c -1.1951,2.2683 -2.5739,3.919 -4.1366,4.952 -1.5522,1.0331 -3.4209,1.5444 -5.586,1.5444 -1.3789,0 -2.5841,-0.2025 -3.6152,-0.6071 -1.0214,-0.4049 -1.8485,-1.0011 -2.4614,-1.7998 -0.3575,-0.5008 -0.6125,-1.0969 -0.766,-1.8107 -0.1534,-0.7029 -0.2246,-1.7251 -0.2246,-3.0564 v -2.6842 -13.7911 h -3.9829 v -1.9061 c 2.3793,-0.0428 4.5856,-0.1172 6.6176,-0.2344 2.0326,-0.1063 3.9216,-0.2555 5.658,-0.4151 v 20.1278 c 0,1.1604 0.204,2.0128 0.6024,2.5561 0.3987,0.5432 1.0315,0.8091 1.9096,0.8091 1.491,0 2.8598,-0.9267 4.0852,-2.7904 1.2255,-1.8633 1.8384,-3.9719 1.8384,-6.3255 v -11.8215 h -4.3407 v -1.9384 c 1.8999,0 3.8812,-0.053 5.9544,-0.1488 2.0732,-0.1067 4.3609,-0.2663 6.8527,-0.4684 z m 5.9279,25.6764 v -9.2654 h 1.5217 c 0.6944,2.7476 1.787,4.8138 3.278,6.209 1.4813,1.3952 3.3189,2.0872 5.4945,2.0872 1.7157,0 3.1148,-0.4365 4.1974,-1.2991 1.093,-0.8629 1.6339,-1.9388 1.6339,-3.2269 0,-1.6188 -1.787,-2.6624 -5.3512,-3.1203 -1.0214,-0.1281 -1.808,-0.2344 -2.3695,-0.3411 -3.1452,-0.479 -5.3617,-1.31 -6.6276,-2.4918 -1.2667,-1.1928 -1.8999,-2.9606 -1.8999,-5.3037 0,-2.7262 0.7761,-4.8991 2.3388,-6.5069 1.5525,-1.6082 3.6561,-2.4174 6.3114,-2.4174 1.0011,0 1.9914,0.1277 2.9925,0.3727 1.0008,0.2554 1.94,0.6175 2.8185,1.0969 l 1.2765,-1.1608 h 1.2255 l 0.1841,7.0821 h -1.5217 c -0.6433,-1.9276 -1.5323,-3.3867 -2.6963,-4.3777 -1.1542,-0.9899 -2.5634,-1.4797 -4.218,-1.4797 -1.6137,0 -2.9513,0.3302 -4.0135,1.0011 -1.0518,0.6601 -1.583,1.4696 -1.583,2.4279 0,1.3739 2.0631,2.3322 6.1993,2.8649 0.6534,0.0853 1.1741,0.1596 1.5522,0.2235 3.2067,0.4155 5.4532,1.2889 6.7401,2.6094 1.287,1.3204 1.9303,3.3547 1.9303,6.1237 0,2.9926 -0.8271,5.3465 -2.4813,7.0502 -1.6545,1.7036 -3.9321,2.5556 -6.8223,2.5556 -1.3991,0 -2.676,-0.1811 -3.8399,-0.5428 -1.1643,-0.3622 -2.1958,-0.8949 -3.0638,-1.5763 l -1.7364,1.4057 z"
         style="fill:#e30016;fill-rule:evenodd"
         id="path892" />
      <path
         d="m 512.2789,372.3808 c 3.2371,0 5.8621,2.625 5.8621,5.8621 0,3.2371 -2.625,5.8621 -5.8621,5.8621 -3.2371,0 -5.8621,-2.625 -5.8621,-5.8621 0,-3.2371 2.625,-5.8621 5.8621,-5.8621 z"
         style="fill:none;stroke:#e30016;stroke-width:0.7761;stroke-linecap:butt;stroke-linejoin:miter;stroke-dasharray:none"
         id="path894" />
      <path
         d="m 509.5853,380.716 v -3.7556 h -1.2288 v -0.7654 h 3.2915 v 0.7654 h -1.2257 v 3.7556 z m 2.5913,0 v -4.521 h 1.2519 l 0.7513,3.0841 0.7426,-3.0841 h 1.2546 v 4.521 h -0.7762 v -3.5588 l -0.823,3.5588 h -0.8048 l -0.8202,-3.5588 v 3.5588 z"
         style="fill:#e30016;fill-rule:evenodd"
         id="path896" />
      <path
         d="m 358.3009,435.5322 c -1.853,4.785 -6.5981,3.0626 -7.1906,-0.952 -2.1614,-16.6893 -4.0488,-35.2342 -5.5993,-53.1194 l -8.3518,14.9735 c -3.1847,3.7693 -7.8939,0.5256 -6.8535,-3.1117 l 12.9569,-29.0679 c 2.1515,-5.3893 9.4996,-6.2311 10.4862,0.0731 l 3.7454,42.5395 c 8.1475,-30.3416 19.8648,-60.0116 35.8021,-88.8877 10.9296,-21.2813 26.6753,-2.9404 14.381,4.2466 -18.029,17.117 -26.7183,43.3405 -35.8035,68.24 -4.9828,13.8707 -9.2958,29.4225 -13.5729,45.066 z"
         style="fill:#e30016;fill-rule:evenodd"
         id="path898" />
      <path
         d="m 377.6298,426.0187 c 0.7165,2.1355 5.7193,2.6495 8.6517,-1.7937 l 4.9801,-23.1373 c 1.3453,-7.0033 -6.5767,-7.3 -8.913,0.6956 z"
         style="fill:#e30016;fill-rule:evenodd"
         id="path900" />
      <path
         d="m 393.9793,378.1248 c 2.3775,-1.0264 5.7954,1.1963 3.509,4.0354 l -5.3303,4.7119 c -2.8989,1.2442 -4.823,-1.6214 -3.9225,-3.7197 z"
         style="fill:#e30016;fill-rule:evenodd"
         id="path902" />
      <g
         id="Layer1003">
        <g
           id="Layer1004">
          <path
             d="m 468.3064,387.2005 v 11.1403 h 2.6265 v -11.1403 z"
             style="fill:#e30016;fill-rule:evenodd"
             id="path904" />
          <path
             d="m 464.0495,394.0839 h 11.1403 v -2.6265 h -11.1403 z"
             style="fill:#e30016;fill-rule:evenodd"
             id="path906" />
        </g>
        <g
           id="Layer1005">
          <path
             d="m 483.613,387.2005 v 11.1403 h 2.6265 v -11.1403 z"
             style="fill:#e30016;fill-rule:evenodd"
             id="path909" />
          <path
             d="m 479.3561,394.0839 h 11.1403 v -2.6265 h -11.1403 z"
             style="fill:#e30016;fill-rule:evenodd"
             id="path911" />
        </g>
        <g
           id="Layer1006">
          <path
             d="m 498.3311,387.2005 v 11.1403 h 2.6265 v -11.1403 z"
             style="fill:#e30016;fill-rule:evenodd"
             id="path914" />
          <path
             d="m 494.0742,394.0839 h 11.1403 v -2.6265 h -11.1403 z"
             style="fill:#e30016;fill-rule:evenodd"
             id="path916" />
        </g>
      </g>
    </g>
  </g>
  <g
     id="Layer1007"
     transform="matrix(2.9207277,0,0,2.9207277,-1742.8545,-353.74268)">
    <path
       d="m 908.9444,339.0014 c 2.644,-0.5348 5.4958,-2.0054 8.3248,-4.6905 8.9965,-8.3888 17.4105,-6.9083 17.4662,-6.9303 -0.0469,-0.0392 -8.5411,-0.9486 -14.8588,-11.503 -1.9012,-3.242 -4.1353,-5.41 -6.4351,-6.6795 2.3627,-1.1477 4.7066,-3.1935 6.7744,-6.3305 6.8602,-10.2099 15.392,-10.6746 15.44,-10.7091 -0.0536,-0.0276 -8.5334,1.0119 -17.0784,-7.836 -2.7108,-2.8574 -5.5098,-4.4806 -8.1445,-5.1412 2.1568,-1.6504 4.0829,-4.2478 5.4393,-7.9445 4.3388,-11.5094 12.5365,-13.917 12.5758,-13.9615 -0.0585,-0.0144 -8.0748,2.9404 -18.4201,-3.7142 -3.4338,-2.2526 -6.6534,-3.1796 -9.4511,-3.1407 1.8287,-2.1171 3.1907,-5.1756 3.675,-9.2529 1.5591,-12.2012 8.9785,-16.4395 9.0057,-16.4916 -0.0609,-8e-4 -7.175,4.7282 -18.7794,0.6482 -3.8452,-1.3913 -7.1798,-1.5535 -9.8866,-0.8789 1.2791,-2.4789 1.8896,-5.7589 1.4205,-9.8205 -1.3023,-12.2309 4.9361,-18.0687 4.9514,-18.1256 -0.0589,0.0124 -5.8888,6.2572 -18.1212,4.9693 -3.7644,-0.4306 -6.8598,0.0629 -9.2649,1.1573 0.5171,-2.591 0.2932,-5.7148 -0.9851,-9.2813 -4.0464,-11.6156 0.7038,-18.7181 0.705,-18.777 -0.0544,0.0265 -4.3123,7.4318 -16.5196,8.9549 -3.8801,0.449 -6.8417,1.6953 -8.9484,3.3846 -0.0389,-2.7 -0.961,-5.7762 -3.0846,-9.0538 -6.5953,-10.3822 -3.5949,-18.3824 -3.6073,-18.4401 -0.0477,0.0381 -2.4993,8.221 -14.034,12.4949 -3.7483,1.3508 -6.3774,3.2905 -8.0371,5.4689 -0.6325,-2.6639 -2.2445,-5.5029 -5.1199,-8.2586 -8.805,-8.5903 -7.7222,-17.0661 -7.7475,-17.1193 -0.0376,0.0476 -0.5444,8.575 -10.7887,15.3847 -3.7556,2.4484 -5.9601,5.2966 -6.9363,8.1088 -1.1381,-2.6856 -3.4455,-5.3411 -7.197,-7.5544 -10.5392,-6.3433 -11.4297,-14.8391 -11.467,-14.8856 -0.0232,0.0549 1.4369,8.4709 -6.9739,17.4474 -2.6035,2.7293 -4.0744,5.4829 -4.6581,8.0515 -1.7662,-1.9729 -4.4081,-3.6718 -8.0403,-4.7871 -11.7273,-3.7118 -14.5727,-11.7678 -14.6196,-11.8042 -0.0104,0.0593 3.3714,7.9033 -2.7172,18.5923 -2.0711,3.5621 -2.819,6.8353 -2.6227,9.6334 -2.2137,-1.7213 -5.3503,-2.9223 -9.4612,-3.1867 -12.2681,-0.8969 -16.9006,-8.0755 -16.9547,-8.1 0.004,0.0605 5.1092,6.9079 1.6605,18.7161 -1.0131,3.3578 -1.1429,6.2901 -0.6422,8.7393 -2.3615,-0.8192 -5.2874,-1.0755 -8.7481,-0.5151 -12.1596,1.8603 -18.2762,-4.1049 -18.3339,-4.1165 0.0164,0.0577 6.52,5.5955 5.7906,17.8752 -0.2132,3.1198 0.1854,5.7513 1.0066,7.8993 -2.2958,-0.125 -4.924,0.3021 -7.8283,1.4582 -11.4682,4.4493 -18.7313,-0.0501 -18.7906,-0.0485 0.0288,0.0525 7.5776,4.0508 9.5245,16.1967 0.6706,4.4362 2.3506,7.6233 4.507,9.6784 -2.976,-0.1266 -6.4363,0.8773 -10.0957,3.4719 -10.0969,7.0264 -18.2157,4.3652 -18.273,4.3809 0.0404,0.044 8.3187,2.1507 13.0729,13.4959 1.6973,4.1534 4.0808,6.855 6.6607,8.3444 -2.9216,0.5784 -6.0486,2.3691 -8.9933,5.7529 -8.1569,9.2076 -16.6743,8.5346 -16.7264,8.563 0.0497,0.0333 8.5915,0.1302 15.8851,10.0357 2.6283,3.6366 5.5811,5.7008 8.4393,6.54 -2.7032,1.2503 -5.3199,3.7276 -7.3845,7.7098 -5.7573,10.8705 -14.1934,12.2233 -14.2375,12.2634 0.0561,0.0204 8.3804,-1.898 17.8027,6.0097 3.4107,2.9147 6.7673,4.227 9.7429,4.3692 -2.3323,1.852 -4.292,4.8744 -5.36,9.2309 -3.0337,11.9212 -10.9133,15.2237 -10.947,15.273 0.0593,0.007 7.6974,-3.8193 18.7177,1.6452 4.0019,2.029 7.5724,2.5121 10.4979,1.9493 -1.8303,2.3495 -3.0224,5.7497 -3.0336,10.2351 -0.1394,12.3006 -7.0188,17.3669 -7.0401,17.4226 0.0593,-0.007 6.581,-5.5254 18.5783,-2.8118 4.3669,1.0291 7.9518,0.657 10.6618,-0.5792 -1.225,2.7148 -1.5824,6.2997 -0.5364,10.6617 2.7629,11.987 -2.7288,18.5318 -2.7365,18.5907 0.0561,-0.0208 5.0936,-6.9202 17.3926,-7.1101 4.4866,-0.0288 7.8824,-1.235 10.2251,-3.0749 -0.5508,2.9271 -0.0533,6.4952 1.9909,10.4875 5.5098,10.9982 1.715,18.6532 1.7214,18.712 0.0497,-0.0336 3.3193,-7.9257 15.2273,-11.0082 4.3532,-1.0852 7.3701,-3.0578 9.2132,-5.398 0.1542,2.9744 1.4782,6.3245 4.4057,9.7232 7.9462,9.3902 6.0618,17.7238 6.0818,17.7795 0.0405,-0.0441 1.3584,-8.4846 12.2049,-14.2864 3.9755,-2.0806 6.4419,-4.7085 7.6817,-7.4173 0.8509,2.8542 2.9268,5.7985 6.573,8.4116 9.935,7.2535 10.0672,15.7962 10.0997,15.8458 0.0292,-0.0524 -0.679,-8.5658 8.495,-16.76 3.3729,-2.9587 5.1516,-6.0934 5.718,-9.0177 1.4998,2.573 4.2106,4.9449 8.3696,6.625 11.3644,4.7082 13.506,12.9792 13.5492,13.0197 0.016,-0.0577 -2.6783,-8.1645 4.3064,-18.2899 2.0566,-2.9247 3.103,-5.7196 3.3738,-8.2402 1.9965,1.5611 4.727,2.7589 8.2566,3.3213 12.1303,2.0439 16.0694,9.6251 16.1206,9.6551 0.003,-0.0601 -4.4385,-7.3577 0.1014,-18.7902 1.4417,-3.538 1.7934,-6.673 1.3716,-9.2977 2.3639,1.2146 5.4513,1.8539 9.2609,1.5811 12.2774,-0.7699 17.838,5.7165 17.8945,5.7333 -0.0109,-0.0589 -5.9961,-6.1543 -4.1762,-18.3199 0.5496,-3.4643 0.284,-6.3898 -0.5436,-8.7493 2.4508,0.4923 5.3815,0.3529 8.7353,-0.671 11.7966,-3.4872 18.6636,1.5963 18.7225,1.6007 -0.0236,-0.0556 -7.2175,-4.6633 -8.1557,-16.9282 -0.2712,-4.0155 -1.4333,-7.0993 -3.0982,-9.2985 2.7545,0.1426 5.9573,-0.6258 9.432,-2.6556 10.6758,-6.1098 18.5286,-2.7444 18.5875,-2.754 -0.0361,-0.0481 -8.0976,-2.8755 -11.8351,-14.5948 -1.1521,-3.7275 -2.9183,-6.4079 -4.9626,-8.1689 z"
       style="fill:#e30016;fill-rule:evenodd"
       id="path922" />
    <path
       d="m 781.8218,182.9959 c 67.7806,0 122.7483,54.9677 122.7483,122.7482 0,67.7806 -54.9677,122.7483 -122.7483,122.7483 -67.7805,0 -122.7482,-54.9677 -122.7482,-122.7483 0,-67.7805 54.9677,-122.7482 122.7482,-122.7482 z"
       style="fill:#ffffff;fill-rule:evenodd"
       id="path924" />
    <path
       d="m 781.8218,192.5684 c 62.4948,0 113.1757,50.681 113.1757,113.1757 0,62.4947 -50.6809,113.1757 -113.1757,113.1757 -62.4947,0 -113.1762,-50.681 -113.1762,-113.1757 0,-62.4947 50.6815,-113.1757 113.1762,-113.1757 z"
       style="fill:#e30016;fill-rule:evenodd"
       id="path926" />
    <path
       d="m 778.4318,296.763 c 9.7014,-3.7543 20.1695,-10.7509 25.4298,-15.5531 -10.7951,22.8245 -21.8449,37.5371 -50.2123,50.1621 17.301,-17.4568 20.4183,-24.4778 24.7825,-34.609 z m -32.6435,-35.2449 c -9.6454,22.4268 0.957,31.5743 18.2473,29.7158 25.7862,-2.3395 56.4192,-25.7177 67.624,-43.7299 -7.7757,15.6965 -24.7518,29.9033 -41.739,39.8435 -12.803,7.7809 -26.9774,13.2417 -37.5527,11.7143 -14.9655,-2.1615 -20.2695,-17.3118 -6.5796,-37.5437 z m 18.7368,-15.255 c -9.6457,14.7294 -6.2017,25.3522 8.8559,26.1567 12.8881,0.6885 23.3847,-3.0335 34.5936,-8.5229 11.2705,-5.9067 21.2247,-13.9531 24.5801,-17.9451 -3.4796,4.4691 -10.918,12.1431 -20.8683,18.6029 -8.6293,5.6019 -32.8749,16.4091 -47.1468,12.7227 -6.3548,-1.6415 -9.5175,-6.2163 -9.8691,-10.8878 -0.5309,-7.0531 4.6451,-15.34 9.8546,-20.1265 z m -21.6528,-7.8844 c 3.5511,7.5069 -1.5325,11.1729 -5.2397,10.2054 -2.1376,-0.218 -4.3577,-4.1082 -2.9868,-7.3769 1.5354,-3.6603 6.152,-7.9812 12.5467,-13.6316 5.2988,-4.6819 11.7984,-10.2816 19.8612,-15.6765 16.0632,-10.7478 29.4355,-13.9697 36.8966,-4.8484 9.2308,11.5698 8.1495,37.861 5.6182,53.4765 -1.9291,0.8825 -17.4206,9.2782 -28.487,8.8106 -1.091,-7.9491 -6.3904,-17.9244 -13.8719,-26.497 4.8318,2.338 16.8727,7.3449 27.0086,-7.0383 2.5652,-4.7178 3.4489,-6.9478 3.5817,-10.5672 0.8976,-10.525 -6.8054,-16.2494 -19.0014,-12.7622 -5.4234,1.5508 -10.719,4.8267 -15.5214,8.2242 -7.7427,5.4774 -14.0855,11.6729 -20.4048,17.6814 z m 40.2433,-12.7826 c 3.3592,1.2694 5.7496,4.5153 5.7496,8.3182 0,4.9089 -3.9809,8.8899 -8.8898,8.8899 -4.9087,0 -8.8896,-4.12 -8.8896,-8.8899 0,-4.7698 3.8788,-8.9401 8.4014,-9.3559 l 9.7123,-5.2269 z m 55.8563,1.5913 c 4.9088,0 8.8898,3.9809 8.8898,8.8896 0,4.9089 -3.981,8.8898 -8.8898,8.8898 -4.9087,0 -8.8897,-3.9809 -8.8897,-8.8898 0,-4.9087 3.981,-8.8896 8.8897,-8.8896 z"
       style="fill:#ffffff;fill-rule:evenodd"
       id="path928" />
    <g
       id="Layer1008">
      <path
         d="m 781.9736,385.8487 v -7.1463 c 0,-1.0984 -0.1219,-1.8096 -0.3657,-2.1449 -0.2442,-0.3295 -0.6765,-0.4972 -1.3086,-0.4972 -1.0921,0 -1.9738,0.4452 -2.6446,1.3357 -0.6708,0.8961 -1.0092,2.0812 -1.0092,3.5555 v 2.596 c 0,1.4974 0.3327,2.6884 0.998,3.5732 0.6655,0.8788 1.5525,1.3181 2.6558,1.3181 0.6209,0 1.0534,-0.1734 1.3029,-0.5262 0.2495,-0.3469 0.3714,-1.0348 0.3714,-2.0639 z m -11.7761,10.7538 1.8519,-1.0524 v -19.0329 h -2.1623 c 0,-1.712 1.5837,-1.0938 3.4983,-1.2027 1.1257,-0.0694 2.2123,-0.1503 3.2601,-0.2543 v 2.5901 c 0.4991,-0.8672 1.1035,-1.5149 1.8129,-1.9485 0.7099,-0.4279 1.5249,-0.6416 2.4451,-0.6416 1.7631,0 3.2271,0.6822 4.3856,2.0408 1.1589,1.3587 1.7356,3.0874 1.7356,5.1745 0,2.0179 -0.5877,3.7178 -1.7631,5.0879 -1.1754,1.3703 -2.6282,2.0582 -4.3581,2.0582 -0.9312,0 -1.7519,-0.2138 -2.4561,-0.6359 -0.7041,-0.422 -1.3028,-1.0695 -1.8019,-1.9369 v 8.7013 h 2.3896 v 1.0524 z m 17.7222,-0.5216 h 1.935 v -20.4787 h -2.129 v -1.0348 c 1.1919,-0.0347 2.3508,-0.0867 3.4763,-0.1619 1.1255,-0.0696 2.2066,-0.1503 3.2488,-0.2429 v 21.9183 h 2.0958 v 1.0349 h -8.6269 z m 24.3477,-12.9046 v 12.8698 h 2.129 v 1.035 c -1.0424,0 -2.1071,0.023 -3.1992,0.0693 -1.0921,0.0461 -2.2565,0.1157 -3.4927,0.2023 v -3.4226 c -0.6488,1.2315 -1.3974,2.1276 -2.2458,2.6884 -0.8426,0.5609 -1.8571,0.8385 -3.0325,0.8385 -0.7486,0 -1.4029,-0.11 -1.9627,-0.3296 -0.5545,-0.2199 -1.0035,-0.5435 -1.3363,-0.9771 -0.194,-0.2719 -0.3325,-0.5955 -0.4158,-0.983 -0.0833,-0.3816 -0.122,-0.9365 -0.122,-1.6593 v -1.4572 -7.487 h -2.1622 v -1.0349 c 1.2917,-0.0232 2.4895,-0.0636 3.5926,-0.1272 1.1035,-0.0577 2.129,-0.1387 3.0716,-0.2254 v 10.9272 c 0,0.63 0.1108,1.0927 0.3271,1.3876 0.2165,0.2949 0.56,0.4393 1.0367,0.4393 0.8095,0 1.5525,-0.5031 2.2178,-1.5149 0.6653,-1.0115 0.998,-2.1563 0.998,-3.434 v -6.4177 h -2.3565 v -1.0524 c 1.0315,0 2.1071,-0.0288 3.2326,-0.0808 1.1255,-0.0579 2.3675,-0.1446 3.7203,-0.2543 z m 3.2181,13.9395 v -5.0301 h 0.8262 c 0.3769,1.4916 0.9701,2.6133 1.7796,3.3708 0.8041,0.7574 1.8018,1.1331 2.9829,1.1331 0.9314,0 1.691,-0.237 2.2787,-0.7053 0.5934,-0.4684 0.887,-1.0525 0.887,-1.7518 0,-0.8788 -0.9701,-1.4454 -2.9051,-1.694 -0.5545,-0.0696 -0.9815,-0.1273 -1.2864,-0.1852 -1.7075,-0.26 -2.9108,-0.7112 -3.598,-1.3528 -0.6877,-0.6475 -1.0315,-1.6073 -1.0315,-2.8793 0,-1.48 0.4214,-2.6596 1.2697,-3.5325 0.8429,-0.8731 1.9849,-1.3124 3.4264,-1.3124 0.5435,0 1.0811,0.0694 1.6247,0.2023 0.5433,0.1387 1.0532,0.3353 1.5301,0.5956 l 0.693,-0.6302 h 0.6652 l 0.1,3.8447 h -0.8261 c -0.3493,-1.0464 -0.8319,-1.8385 -1.4638,-2.3765 -0.6266,-0.5374 -1.3916,-0.8034 -2.2899,-0.8034 -0.876,0 -1.6022,0.1793 -2.1789,0.5435 -0.571,0.3584 -0.8594,0.7979 -0.8594,1.3181 0,0.7459 1.1201,1.2661 3.3656,1.5553 0.3547,0.0463 0.6373,0.0867 0.8426,0.1214 1.7409,0.2255 2.9605,0.6997 3.6592,1.4166 0.6987,0.7168 1.0479,1.8212 1.0479,3.3245 0,1.6246 -0.449,2.9025 -1.3471,3.8274 -0.8982,0.9249 -2.1347,1.3874 -3.7037,1.3874 -0.7596,0 -1.4528,-0.0983 -2.0847,-0.2946 -0.6321,-0.1967 -1.1921,-0.4858 -1.6633,-0.8558 l -0.9426,0.7632 z"
         style="fill:#ffffff;fill-rule:evenodd"
         id="path930" />
      <path
         d="m 829.666,366.5722 c 1.7574,0 3.1824,1.425 3.1824,3.1824 0,1.7574 -1.425,3.1825 -3.1824,3.1825 -1.7574,0 -3.1825,-1.4251 -3.1825,-3.1825 0,-1.7574 1.4251,-3.1824 3.1825,-3.1824 z"
         style="fill:#ffffff;fill-rule:evenodd;stroke:#d4a365;stroke-width:0.4213;stroke-linecap:butt;stroke-linejoin:miter;stroke-dasharray:none"
         id="path932" />
      <path
         d="m 828.2036,371.0972 v -2.0389 h -0.6671 v -0.4155 h 1.7869 v 0.4155 h -0.6654 v 2.0389 z m 1.4068,0 v -2.4544 h 0.6796 l 0.4079,1.6743 0.4032,-1.6743 h 0.6811 v 2.4544 h -0.4214 v -1.932 l -0.4468,1.932 h -0.4369 l -0.4453,-1.932 v 1.932 z"
         style="fill:#ffffff;fill-rule:evenodd"
         id="path934" />
      <path
         d="m 746.073,400.8563 c -1.0059,2.5977 -3.582,1.6627 -3.9036,-0.5168 -1.1734,-9.0604 -2.1981,-19.1283 -3.0398,-28.838 l -4.5341,8.129 c -1.7289,2.0463 -4.2855,0.2853 -3.7207,-1.6893 l 7.0342,-15.7806 c 1.168,-2.9258 5.1572,-3.3828 5.6928,0.0397 l 2.0333,23.0942 c 4.4232,-16.4722 10.7844,-32.5797 19.4366,-48.2562 5.9335,-11.5533 14.4817,-1.5963 7.8073,2.3055 -9.7878,9.2926 -14.5051,23.529 -19.4374,37.0467 -2.7051,7.5302 -5.0465,15.9731 -7.3686,24.4658 z"
         style="fill:#ffffff;fill-rule:evenodd"
         id="path936" />
      <path
         d="m 756.5665,395.6915 c 0.389,1.1594 3.105,1.4384 4.6969,-0.9737 l 2.7037,-12.561 c 0.7303,-3.802 -3.5705,-3.9631 -4.8388,0.3776 z"
         style="fill:#ffffff;fill-rule:evenodd"
         id="path938" />
      <path
         d="m 765.4425,369.6905 c 1.2907,-0.5572 3.1462,0.6495 1.9049,2.1907 l -2.8937,2.5581 c -1.5738,0.6755 -2.6183,-0.8802 -2.1295,-2.0194 z"
         style="fill:#ffffff;fill-rule:evenodd"
         id="path940" />
      <g
         id="Layer1009">
        <g
           id="Layer1010">
          <path
             d="m 805.7938,374.6176 v 6.0479 h 1.4259 v -6.0479 z"
             style="fill:#ffffff;fill-rule:evenodd"
             id="path942" />
          <path
             d="m 803.4828,378.3545 h 6.0479 v -1.4259 h -6.0479 z"
             style="fill:#ffffff;fill-rule:evenodd;stroke:#d4a365;stroke-width:0.216;stroke-linecap:butt;stroke-linejoin:miter;stroke-dasharray:none"
             id="path944" />
        </g>
        <g
           id="Layer1011">
          <path
             d="m 814.1036,374.6176 v 6.0479 h 1.4259 v -6.0479 z"
             style="fill:#ffffff;fill-rule:evenodd"
             id="path947" />
          <path
             d="m 811.7925,378.3545 h 6.048 v -1.4259 h -6.048 z"
             style="fill:#ffffff;fill-rule:evenodd"
             id="path949" />
        </g>
        <g
           id="Layer1012">
          <path
             d="m 822.0938,374.6176 v 6.0479 h 1.426 v -6.0479 z"
             style="fill:#ffffff;fill-rule:evenodd"
             id="path952" />
          <path
             d="m 819.7828,378.3545 h 6.048 v -1.4259 h -6.048 z"
             style="fill:#ffffff;fill-rule:evenodd"
             id="path954" />
        </g>
      </g>
    </g>
  </g>
</svg>
